<svg id="bf428cc3-666c-460b-9b3b-c7d5369461b0" data-name="Слой 1" xmlns="http://www.w3.org/2000/svg" viewBox="0 0 296.89 307.11">
  <defs>
    <style>
      .e3fc020d-4f29-4ea7-8ddd-a6c3266e23ed {
        fill: currentColor;
      }
    </style>
  </defs>
  <path class="e3fc020d-4f29-4ea7-8ddd-a6c3266e23ed" d="M657.5,356.66a4.63,4.63,0,0,1,2.31,0c.81,12.81,0,26,0,38.87l.07,78,0,57.42c.1,14,.91,28.09-.48,42q-.3,3.21-.89,6.37t-1.5,6.26c-.59,2.06-1.29,4.09-2.08,6.09s-1.67,4-2.65,5.86c-7.88,15.46-22.08,26.83-38.52,32.13-17.06,5.48-34.92,3.41-50.75-4.75a64,64,0,0,1-32-37.56,67.21,67.21,0,0,1,4.68-50.48c.5-1,1-1.9,1.59-2.83s1.12-1.85,1.72-2.75,1.22-1.79,1.86-2.66,1.3-1.73,2-2.57,1.39-1.67,2.11-2.47,1.47-1.6,2.23-2.37,1.54-1.52,2.34-2.25,1.61-1.44,2.44-2.14,1.68-1.36,2.55-2,1.75-1.28,2.64-1.89,1.81-1.19,2.73-1.75,1.87-1.11,2.82-1.62,1.91-1,2.89-1.49,2-.91,3-1.34,2-.82,3-1.19,2-.72,3.08-1c18.4-5.64,35.85-1.81,52.5,7-.29-14.17-.05-28.39-.06-42.57q-.11-26.88.12-53.76c-21,3.73-41.79,8.17-62.73,12.05-14.6,2.7-30.14,4.11-44.2,9a34.49,34.49,0,0,0-14.27,8.69c-8.83,9-9.66,19-9.61,31l.05,84.5c.06,16,1.57,33-.62,48.81a59.44,59.44,0,0,1-7.44,20.68c-.56,1-1.15,1.93-1.75,2.87s-1.24,1.88-1.9,2.79-1.33,1.81-2,2.69-1.42,1.74-2.17,2.58-1.5,1.67-2.29,2.48-1.59,1.58-2.41,2.35-1.67,1.51-2.53,2.23-1.74,1.42-2.64,2.1-1.81,1.33-2.74,2-1.87,1.24-2.83,1.83-1.93,1.14-2.92,1.68-2,1-3,1.53-2,.94-3.08,1.38-2.08.84-3.14,1.22-2.12.74-3.2,1.06-2.16.63-3.25.91a66.1,66.1,0,0,1-49.84-6.93c-1-.58-1.95-1.18-2.9-1.81s-1.89-1.28-2.8-2-1.82-1.37-2.71-2.09-1.74-1.47-2.59-2.23-1.67-1.55-2.48-2.36-1.59-1.63-2.35-2.48-1.51-1.71-2.23-2.59-1.42-1.79-2.1-2.7-1.33-1.86-2-2.81-1.23-1.92-1.81-2.9-1.13-2-1.67-3-1-2-1.51-3.07-.93-2.08-1.36-3.14-.82-2.13-1.19-3.2-.72-2.17-1-3.26-.6-2.2-.87-3.31-.46-2.09-.66-3.15-.36-2.11-.5-3.17-.26-2.13-.35-3.2-.16-2.14-.2-3.21,0-2.14,0-3.22.06-2.14.13-3.21.16-2.14.28-3.2.27-2.13.44-3.19.38-2.11.6-3.16.48-2.09.76-3.12.57-2.07.9-3.09.68-2,1.06-3,.78-2,1.2-3,.88-1.95,1.36-2.92,1-1.91,1.49-2.84,1.07-1.86,1.63-2.77,1.16-1.85,1.77-2.76,1.25-1.79,1.91-2.66,1.33-1.73,2-2.57,1.42-1.66,2.16-2.46,1.5-1.59,2.28-2.35,1.58-1.51,2.39-2.24,1.65-1.43,2.5-2.11,1.72-1.35,2.6-2,1.79-1.26,2.7-1.86,1.84-1.17,2.79-1.72,1.9-1.08,2.86-1.59,1.95-1,2.95-1.43,2-.89,3-1.29,2-.79,3.07-1.14,2.07-.69,3.12-1,2.1-.58,3.17-.83c17.83-4.17,34.16-.61,49.54,9L464,481.89c0-15.13-1.16-31.43,1.87-46.31a67.23,67.23,0,0,1,1.67-6.57,65.44,65.44,0,0,1,2.34-6.36,61.18,61.18,0,0,1,3-6.09,65.89,65.89,0,0,1,3.59-5.76,69.82,69.82,0,0,1,30.41-24.31c16.49-7,45.92-10.67,64.51-14ZM428.34,563.18c-9.93,1.24-18.74,4.78-25,12.88a33.92,33.92,0,0,0-6.59,25.24,35.26,35.26,0,0,0,13.35,23.62c.41.31.82.61,1.24.9s.85.56,1.29.83.87.53,1.32.78.9.48,1.36.71.92.44,1.39.64.94.4,1.42.58,1,.35,1.44.51l1.47.45c.49.13,1,.26,1.48.37s1,.21,1.51.3,1,.16,1.51.23,1,.12,1.53.16,1,.07,1.52.08,1,0,1.54,0,1,0,1.53-.06,1-.08,1.52-.13c10.3-1.92,18.87-5.65,25-14.52.33-.46.64-.93.94-1.42s.6-1,.87-1.46.55-1,.8-1.5.5-1,.72-1.55.45-1,.65-1.57.39-1.07.56-1.61.34-1.09.49-1.63.28-1.11.4-1.66.23-1.11.32-1.67.18-1.13.24-1.69.12-1.13.16-1.7.06-1.13.06-1.7,0-1.13,0-1.7-.05-1.14-.1-1.7-.11-1.13-.18-1.7-.17-1.12-.27-1.68-.24-1.13-.38-1.69-.29-1.12-.46-1.67-.35-1.1-.54-1.64-.4-1.09-.62-1.62-.46-1.06-.7-1.59-.51-1-.78-1.55-.56-1-.85-1.5-.61-1-.93-1.47-.65-1-1-1.42-.7-.92-1.06-1.37-.75-.88-1.13-1.31-.79-.85-1.19-1.26-.83-.81-1.25-1.2-.87-.77-1.31-1.13-.9-.73-1.37-1.07-.93-.69-1.41-1C443.15,564.56,435.2,562.05,428.34,563.18Zm158.52-28.57c-9.77,2.92-17.45,7.43-22.48,16.62-.27.48-.52,1-.76,1.47s-.46,1-.68,1.51-.42,1-.61,1.54-.36,1-.53,1.57-.31,1-.45,1.59-.26,1.07-.37,1.61-.21,1.08-.3,1.63-.15,1.09-.21,1.64-.1,1.1-.13,1.65-.05,1.1-.05,1.65,0,1.11,0,1.66.07,1.1.12,1.65.12,1.1.19,1.64.17,1.09.28,1.64.23,1.08.36,1.61.28,1.07.43,1.6.34,1.06.53,1.59.39,1,.6,1.56.44,1,.68,1.53.5,1,.76,1.49.54,1,.83,1.45.59,1,.9,1.41.64.92,1,1.36.68.89,1,1.31.72.85,1.1,1.26.76.82,1.16,1.21.8.77,1.22,1.14.84.73,1.28,1.08.87.69,1.32,1,.91.64,1.38,1,.94.6,1.42.88,1,.55,1.47.81c6.66,3.43,13.8,4.23,21.18,3.47,9.64-2.65,17.32-7.5,22.4-16.33.27-.47.53-.94.78-1.42s.49-1,.71-1.45.44-1,.64-1.49.39-1,.56-1.52.34-1,.48-1.54.29-1,.41-1.57.23-1.06.32-1.59.18-1.06.25-1.6.12-1.07.16-1.61.07-1.08.08-1.62,0-1.08,0-1.62,0-1.07-.09-1.61-.09-1.08-.16-1.61-.15-1.07-.25-1.6-.2-1.06-.32-1.59-.26-1-.41-1.57a33.74,33.74,0,0,0-15.68-20.59C602.35,534.54,594.79,533.93,586.86,534.61Z" transform="translate(-363.4 -356.51)"/>
</svg>
