<svg id="a29bb672-9cf7-4c20-b866-2b26f8427523" data-name="Слой 1" xmlns="http://www.w3.org/2000/svg" viewBox="0 0 450.49 331.55">
  <defs>
    <style>
      .a0217196-e1dc-457c-bb57-ed322f0478a4 {
        stroke: currentColor;
        stroke-miterlimit: 10;
        stroke-width: 40px;
      }
    </style>
  </defs>
  <path class="a0217196-e1dc-457c-bb57-ed322f0478a4" d="M310.65,487.77a7.92,7.92,0,0,1,5.48-2.06l257.06-.09,85,0c15.08,0,30.27-.45,45.34,0,1.72.05,4.26.06,5.82.76,2.28,1,4.36,4.35,5.26,6.57,2.59,6.43,1.08,12.86,1.08,19.5,0,6.34,1.8,13.66-.93,19.61-1.34,2.94-3.39,4.3-6.16,5.48A8,8,0,0,1,707,538c-8.68,1.59-24.71.52-33.61.5l-71.08,0H413.43q-46.74.25-93.49,0a21.6,21.6,0,0,1-7.59-1,7.63,7.63,0,0,1-4.46-4.79c-2.76-6.78-2.34-34.91.6-41.67A9.72,9.72,0,0,1,310.65,487.77Z" transform="translate(-285.79 -348)"/>
  <path class="a0217196-e1dc-457c-bb57-ed322f0478a4" d="M334.51,368.24c25.71-.55,51.52,0,77.24,0L549,368.18l96.52.19c18.47,0,37.14-.81,55.58.23,3.84.21,8.2.14,11.08,3,3.33,3.35,4.05,9.23,4.09,13.76.05,5.41,0,24.74-1,28.87a8.93,8.93,0,0,1-2.44,4.42c-5,4.73-16.52,3.44-23,3.46l-239.36-.2-83.47.07c-15.58.06-31.36.69-46.91.08-2.93-.11-7.14-.39-9.49-2.29-3-2.46-4.07-8.09-4.35-11.76-.57-7.31-1.65-32.91,3.47-37.48C313.54,367.19,329.32,368.24,334.51,368.24Z" transform="translate(-285.79 -348)"/>
  <path class="a0217196-e1dc-457c-bb57-ed322f0478a4" d="M315.29,603.86c1.1-.11,2.21-.15,3.32-.17,20.2-.23,40.45.12,60.65.14l147.53.19H644.84c17.14,0,34.33-.57,51.46-.17,4,.09,11.69-.33,15.1,2,2.31,1.59,3.52,4.72,4.05,7.36.81,4.07,1.07,31.4.4,35.74a13.74,13.74,0,0,1-2.14,5.77,9.64,9.64,0,0,1-6.4,4.15,22.9,22.9,0,0,1-4.74.55c-15.59.32-31.31-.33-46.91-.35L540.09,659l-148.92,0c-21.25,0-42.58.65-63.82.31-4.28-.07-13.28.7-16.58-1.83-2.88-2.2-3.91-5.86-4.4-9.29-.63-4.34-.47-30.81.34-35.19a13.87,13.87,0,0,1,2.74-6.31C311.11,604.54,313,604.09,315.29,603.86Z" transform="translate(-285.79 -348)"/>
</svg>
