<?xml version="1.0" encoding="utf-8" ?>
<svg xmlns="http://www.w3.org/2000/svg" xmlns:xlink="http://www.w3.org/1999/xlink" width="1024" height="1024">
	<path fill="#5A189A" d="M0 0L1024 0L1024 1024L0 1024L0 0Z"/>
	<path fill="#3C096C" d="M237.621 591.454C241.116 591.663 242.921 592.093 245.281 594.874C246.878 596.756 247.591 598.924 247.345 601.387C247.132 603.523 245.922 604.435 244.4 605.729C243.217 606.03 241.854 606.466 240.626 606.407C239.241 606.341 238.316 605.922 237.367 604.928C235.758 603.24 235.043 600.954 235.168 598.654C235.309 596.071 235.639 593.26 237.621 591.454Z"/>
	<path fill="#3C096C" d="M705.109 426.455Q705.762 426.428 706.415 426.416C708.209 426.387 709.894 426.348 711.271 427.666C714.503 434.345 714.095 448.159 713.727 455.561C713.521 459.701 712.136 461.271 709.19 463.967C707.164 464.101 705.253 464.406 703.618 462.935C700.241 459.896 699.924 454.084 699.872 449.837C699.784 442.56 699.738 431.983 705.109 426.455Z"/>
	<path fill="#3C096C" d="M280.977 166.589C282.399 166.496 284.514 166.497 285.803 167.143C287.344 167.916 288.596 169.042 288.998 170.796C289.348 172.323 288.654 174.103 287.885 175.407C283.404 183.005 259.306 191.21 250.384 193.367C249.055 193.446 247.723 193.584 246.481 192.97C244.817 192.147 243.706 190.353 243.222 188.612C242.653 186.567 242.879 184.311 244.05 182.515C246.908 178.131 274.623 168.055 280.977 166.589Z"/>
	<path fill="#3C096C" d="M678.303 497.704C678.503 497.673 678.701 497.632 678.902 497.611C687.171 496.741 696.883 498.246 703.186 504.098C704.899 505.689 706.264 507.743 706.245 510.159C706.218 513.549 704.045 515.817 701.719 517.992C698.097 517.345 694.488 516.4 690.899 515.585C681.613 513.743 674.302 514.24 664.973 514.888C664.39 514.525 663.819 514.148 663.268 513.737C661.4 512.342 660.304 510.599 660 508.269C659.738 506.257 660.001 504.281 661.313 502.668C664.755 498.439 673.296 498.2 678.303 497.704Z"/>
	<path fill="#3C096C" d="M217.363 624.683C223.219 623.63 232.303 624.009 237.585 626.837C241.195 628.77 242.772 631.041 244.01 634.86C243.444 635.755 242.869 636.682 242.145 637.46C237.046 642.93 226.331 640.996 219.591 641.038C219.389 641.066 219.187 641.097 218.984 641.121C214.66 641.625 211.241 643.703 207.118 644.825C204.424 645.558 200.343 645.958 197.909 644.295C196.622 643.416 196.029 642.021 195.85 640.526C195.494 637.553 196.575 634.327 198.448 632.028C202.439 627.128 211.293 625.251 217.363 624.683Z"/>
	<path fill="#3C096C" d="M583.841 793.072C585.061 792.957 586.579 792.761 587.794 792.956C590.848 793.446 596.133 799.855 598.462 802.153C602.824 806.456 607.413 810.276 612.548 813.634C617.086 816.602 625.27 818.63 628.448 823.103Q628.619 823.343 628.764 823.599Q628.909 823.855 629.026 824.125Q629.143 824.395 629.232 824.675Q629.32 824.956 629.379 825.244Q629.438 825.533 629.466 825.826Q629.495 826.118 629.493 826.413Q629.49 826.707 629.457 826.999Q629.424 827.292 629.361 827.579C628.685 830.686 626.593 832.366 624.084 834.054C623.158 834.265 622.203 834.459 621.251 834.48C612.341 834.682 595.116 823.199 589.021 816.977C584.888 812.758 579.641 805.867 579.918 799.712C580.051 796.746 581.791 795.003 583.841 793.072Z"/>
	<path fill="#3C096C" d="M547.07 577.598C547.125 577.606 547.181 577.612 547.235 577.62C549.687 577.988 552.678 578.539 554.109 580.847C555.253 582.694 555.448 585.02 554.805 587.084C553.323 591.839 548.816 596.238 546.36 600.652C541.783 608.877 538.18 617.224 534.756 625.975C533.023 630.405 531.974 635.034 527.483 637.32C526.425 637.055 525.32 636.797 524.316 636.366C522.29 635.497 520.452 633.896 519.784 631.748C517.252 623.609 526.943 601.538 531.138 594.291C534.73 588.086 539.701 579.581 547.07 577.598Z"/>
	<path fill="#3C096C" d="M120.313 929.526C121.91 929.456 123.579 929.39 125.054 930.103C129.386 932.198 133.4 937.282 136.989 940.529C141.078 944.228 145.652 947.906 150.278 950.922C156.798 955.173 164.429 957.043 171.384 960.414C171.412 960.466 171.438 960.518 171.466 960.569C172.722 962.85 173.794 964.599 173.35 967.268C172.781 970.688 169.992 972.873 167.372 974.823C165.807 975.28 164.354 975.246 162.754 975.005C148.84 972.91 136.099 962.104 126.217 952.8C123.191 949.95 119.873 947.078 117.526 943.618C115.927 941.261 114.627 938.162 115.311 935.265C115.988 932.393 117.889 930.951 120.313 929.526Z"/>
	<path fill="#3C096C" d="M752.056 26.6985C756.567 26.2663 760.317 26.6011 764.727 27.5546Q765.98 28.6997 766.917 30.1149C767.861 31.5458 768.302 33.4572 767.877 35.1416C767.313 37.38 765.294 39.0594 763.293 40.0182C756.8 43.1303 748.223 43.9884 741.196 45.811C730.224 48.6569 720.088 53.1119 710.134 58.4655C707.518 59.8353 704.896 60.9287 702.139 61.9792C700.979 61.3839 699.776 60.7898 698.69 60.0653C697.059 58.9763 696.049 57.4746 695.737 55.5317C695.334 53.0277 696.585 50.2077 698.095 48.2882C707.572 36.2384 737.236 28.327 752.056 26.6985Z"/>
	<path fill="#3C096C" d="M204.301 202.551C207.016 202.341 209.675 201.904 211.938 203.741C214.473 205.799 214.802 210.68 215.078 213.767C216.63 231.129 216.557 248.513 216.477 265.928C216.452 271.456 217.1 278.327 215.808 283.649C215.264 285.892 213.604 287.663 212.161 289.388C210.508 289.526 208.629 289.817 206.98 289.619C204.444 289.314 203.088 287.307 201.618 285.476Q201.286 281.597 201.181 277.705C200.682 262.143 201.255 246.353 201.341 230.769C201.383 223.093 200.365 214.049 201.648 206.546C201.929 204.905 203.202 203.715 204.301 202.551Z"/>
	<path fill="#3C096C" d="M821.353 26.558C824.834 26.4962 827.63 26.9254 830.846 28.2231C847.284 34.8546 877.656 65.4127 884.663 81.6381C883.425 85.2511 882.675 87.1632 879.434 89.465C878.153 89.4805 877.041 89.4234 875.844 88.9172C869.909 86.4069 864.466 79.0444 859.568 74.6989Q847.293 63.9235 834.642 53.5912C830.366 50.0538 825.607 46.628 821.689 42.7205C819.137 40.1745 817.559 37.177 816.15 33.918C817.384 30.8089 818.85 28.7895 821.353 26.558Z"/>
	<path fill="#3C096C" d="M129.101 665.59C129.824 665.53 130.54 665.482 131.266 665.534Q131.694 665.569 132.116 665.646Q132.538 665.723 132.951 665.841Q133.364 665.96 133.762 666.119Q134.161 666.278 134.542 666.475Q134.923 666.673 135.283 666.908Q135.642 667.142 135.977 667.411Q136.311 667.68 136.617 667.981Q136.923 668.282 137.198 668.612Q137.402 668.853 137.579 669.114Q137.757 669.375 137.905 669.653Q138.053 669.932 138.171 670.224Q138.289 670.517 138.375 670.82Q138.461 671.124 138.514 671.435Q138.567 671.746 138.587 672.061Q138.607 672.376 138.593 672.691Q138.579 673.006 138.531 673.318C137.6 679.584 127.659 683.806 122.649 686.671C110.871 693.406 94.7611 707.408 84.9045 716.861C79.718 721.835 75.3124 727.476 69.3887 731.637C66.9907 731.659 65.1022 731.651 62.8913 730.63C61.0012 729.756 59.6093 728.731 58.9431 726.67C57.9567 723.618 59.628 719.631 61.2456 717.103C64.32 712.3 68.8969 708.017 72.8799 703.951C87.5779 688.945 108.191 670.23 129.101 665.59Z"/>
	<path fill="#3C096C" d="M795.11 44.1339C798.353 43.8083 800.664 44.2671 803.523 45.9358C810.699 50.124 821.085 62.3774 827.541 68.8046C836.583 77.807 846.198 86.2572 855.116 95.3827C859.408 99.7752 863.266 104.587 867.43 109.103C874.303 116.556 881.6 123.625 888.443 131.104C893.535 136.67 926.715 174.253 927.47 177.777Q927.523 178.019 927.552 178.265Q927.581 178.512 927.585 178.759Q927.59 179.007 927.57 179.255Q927.551 179.502 927.507 179.746Q927.463 179.99 927.395 180.228Q927.327 180.467 927.237 180.697Q927.146 180.928 927.033 181.149Q926.92 181.369 926.786 181.578C925.253 183.931 923.465 184.34 920.852 184.828C921.042 189.988 922.048 223.395 923.16 226.476C923.733 226.969 924.449 227.494 924.924 228.078C926.553 230.084 925.988 259.911 926.062 264.383C926.31 279.552 928.224 294.565 929.23 309.683C930.464 328.226 930.881 346.856 932.248 365.377C932.71 371.638 935.917 381.725 934.984 387.453C934.838 388.348 934.178 388.496 933.482 388.983C933.205 393.447 936.078 396.253 936.856 400.306C937.16 401.89 936.108 402.749 935.242 403.987C935.825 417.809 935.865 431.937 937.113 445.705C937.372 448.564 939.223 450.675 939.39 453.686C940.021 465.084 940.32 476.498 941.081 487.892C942.151 503.923 943.671 519.963 944.502 536.005C945.15 548.511 944.917 561.109 945.836 573.594C946.11 577.312 947.759 580.577 948 584.143C948.521 591.842 948.59 599.971 948.339 607.674C948.236 610.84 947.636 614.19 947.789 617.324C947.913 619.873 949.146 622.336 949.391 624.919C950.532 636.906 951.819 649.394 952.139 661.402C952.525 675.825 951.244 689.993 952.659 704.412C953.253 710.475 954.469 706.814 956.353 709.768Q956.181 711.628 955.966 713.483Q955.751 715.338 955.494 717.188Q955.237 719.038 954.937 720.882Q954.637 722.725 954.296 724.561Q953.954 726.397 953.57 728.225Q953.186 730.053 952.76 731.871Q952.334 733.69 951.867 735.498Q951.399 737.306 950.89 739.103Q950.382 740.9 949.832 742.685Q949.282 744.47 948.691 746.242Q948.1 748.014 947.469 749.771Q946.838 751.529 946.166 753.272Q945.495 755.015 944.784 756.742Q944.072 758.469 943.322 760.179Q942.571 761.889 941.781 763.581Q940.992 765.274 940.163 766.948Q939.335 768.622 938.468 770.276Q937.602 771.931 936.697 773.565Q935.793 775.199 934.852 776.812Q933.91 778.425 932.932 780.016Q931.953 781.607 930.939 783.175Q929.924 784.743 928.874 786.287Q927.823 787.831 926.738 789.351Q925.652 790.871 924.532 792.366Q923.412 793.86 922.258 795.329Q921.104 796.797 919.917 798.239Q918.729 799.68 917.509 801.094Q916.289 802.508 915.036 803.893Q913.784 805.279 912.5 806.635Q911.216 807.992 909.901 809.318Q908.587 810.645 907.242 811.941Q905.897 813.237 904.523 814.502C897.465 821.071 889.797 826.681 881.864 832.134C845.742 856.961 802.364 871.92 758.257 870.279C724.529 869.025 692.579 860.527 665.164 840.276C661.94 837.894 658.856 835.458 655.97 832.671C653.2 829.997 650.521 826.857 647.398 824.6C642.488 821.051 636.626 818.592 631.503 815.26C616.459 805.473 608.144 797.066 596.176 784.085C586.908 774.034 578.398 762.9 570.107 752.046C564.326 744.478 558.001 736.914 552.949 728.851C541.759 710.994 537.49 689.626 538.417 668.744C539.929 634.698 557.015 602.959 581.934 580.232C591.246 571.739 601.268 563.785 612.079 557.289C645.824 537.012 693.203 524.269 732.615 526.067C732.1 519.729 732.06 513.351 731.712 507L728.671 453.626C726.723 422.529 723.852 391.514 722.841 360.36C707.086 365.155 690.99 369.765 675.525 375.385C667.194 378.412 659.46 382.555 650.933 385.137C642.95 387.554 634.709 386.521 626.905 388.614C618.856 390.773 610.849 394.287 602.828 396.779L531.07 418.758C515.22 423.588 499.581 429.135 483.77 434.111C475.338 436.764 467.209 439.94 458.414 441.168C457.999 450.76 459.543 460.259 459.981 469.822C460.368 478.261 460.215 486.73 460.639 495.166C460.988 502.1 462.331 509.007 462.992 515.921C463.931 525.743 464.198 535.562 465.366 545.381C466.584 556.403 466.06 567.368 466.951 578.37C467.518 585.378 468.558 592.344 469.111 599.356C469.722 607.103 469.81 614.898 470.516 622.636C471.233 630.486 472.742 638.294 473.138 646.174C473.624 655.813 471.703 665.425 472.588 675.104C474.001 676.648 475.686 678.12 476.012 680.277C476.744 685.124 476.162 690.734 476.131 695.66C476.076 704.337 476.188 713.119 476.684 721.786C477.176 730.362 479.412 738.791 479.973 747.418C480.622 757.398 480.401 767.39 480.858 777.375L484.393 841.912C486.011 872.704 465.87 914.154 445.394 936.663C439.956 942.641 434.273 949.019 427.908 954.026C416.795 962.769 403.055 969.516 390.677 976.299C384.067 979.921 377.592 983.937 370.522 986.626C352.771 993.377 329.894 997.749 310.845 998.546C291.981 999.334 269.499 997.816 251.799 990.708C244.665 987.843 238.106 983.328 230.972 980.749C224.54 978.424 214.332 977.333 209.069 974.441C196.738 967.664 186.601 957.174 175.621 948.508C167.624 942.197 158.816 936.953 151.335 929.987C146.471 925.458 141.57 920.644 137.235 915.611C132.771 910.428 128.672 904.864 124.079 899.805C116.477 891.431 107.809 884.217 100.486 875.487C85.1448 857.199 74.7115 827.803 74.0403 804.03C73.0297 768.24 89.5927 738.271 113.575 713.001C148.722 675.967 207.75 653.793 258.155 652.448C258 645.454 257.371 638.441 257.087 631.445C255.563 593.971 252.932 556.582 250.86 519.139L242.284 342.754L238.085 256.557C237.641 245.816 234.708 224.65 237.616 215.034C238.558 214.022 239.387 213.415 240.699 212.936C243.054 212.076 245.646 211.7 248.068 211.035C253.411 209.57 258.706 207.885 263.996 206.241C285.89 199.437 307.737 192.66 329.735 186.196L669.1 83.3249C682.615 79.2744 696.017 74.8812 709.507 70.7666C720.549 67.3989 731.693 64.3722 742.663 60.7725C759.956 55.0982 777.294 47.9394 795.11 44.1339Z"/>
	<path fill="#9D4EDD" d="M381.496 387.683C385.779 390.173 389.773 394.452 393.591 397.652C400.722 403.629 407.92 409.304 415.564 414.614C415.418 420.027 416.012 425.618 416.337 431.029C417.27 446.565 419.044 462.041 419.956 477.574C424.29 551.418 430.022 625.285 432.699 699.215C433.119 710.82 434.079 722.614 434.891 734.212C435.321 740.354 436.156 746.526 435.963 752.689C428.687 748.088 421.679 737.745 415.852 731.104C411.569 726.224 407.118 721.501 402.875 716.584C402.41 694.843 399.816 673.325 398.547 651.659L386.298 465.502C384.573 439.613 381.786 413.64 381.496 387.683Z"/>
	<path fill="#9D4EDD" d="M873.166 663.163C875.947 664.405 895.662 691.126 900.033 696.054C895.964 710.469 891.57 723.808 884.392 737.031C862.311 777.708 819.605 806.281 775.855 819.15C736.751 830.652 698.819 834.365 661.68 814.102C648.329 805.899 637.78 798.605 627.566 786.421C637.325 791.474 647.644 793.381 658.471 794.514C667.705 795.479 676.935 795.536 686.209 795.469C739.908 795.081 785.24 777.654 826.816 743.788C842.772 730.792 858.708 710.28 866.464 691.099C869.943 682.495 872.208 672.404 873.166 663.163Z"/>
	<path fill="#9D4EDD" d="M716.398 275.597L717.455 275.686C718.674 278.088 719.821 304.37 720.663 310.319C666.43 324.454 613.316 342.722 559.571 358.566Q510.182 372.827 461.214 388.473C448.655 392.461 435.069 395.49 423.011 400.706C418.189 397.051 413.737 392.535 409.257 388.45C403.537 382.914 397.694 377.24 391.5 372.244C400.759 369.99 409.92 367.034 419.051 364.305L474.015 347.623L655.326 293.399C675.688 287.463 695.903 281.081 716.398 275.597Z"/>
	<path fill="#9D4EDD" d="M405.492 750.36C416.065 758.818 428.213 776.003 432.844 788.602C441.042 810.906 434.861 841.718 424.884 862.781C405.275 904.177 367.265 931.277 325.024 946.235C286.562 959.856 242.703 962.353 205.262 944.462C192.215 938.139 179.293 928.903 169.002 918.776C192.128 924.339 211.961 927.518 235.992 926.137C284.827 923.331 340.755 900.712 373.628 863.776C391.405 843.8 404.771 818.463 406.696 791.379C407.655 777.882 406.297 763.876 405.492 750.36Z"/>
	<path fill="#9D4EDD" d="M838.035 121.622C845.316 122.502 859.951 139.685 865.526 145.272C868.781 148.534 872.247 151.56 875.488 154.835C875.427 162.135 876.368 169.503 876.847 176.792Q878.242 199.824 880.04 222.828L886.486 326.501L894.249 462.274Q901.158 567.714 906.617 673.24C899.064 666.912 889.942 653.227 883.756 645.054C879.781 639.802 875.524 634.778 871.565 629.516C871.379 616.968 870.126 604.286 869.458 591.74Q867.004 544.739 863.571 497.799L853.835 352.869C848.043 275.838 845.005 198.554 838.035 121.622Z"/>
	<defs>
		<linearGradient id="gradient_0" gradientUnits="userSpaceOnUse" x1="842.94165" y1="465.69604" x2="75.022316" y2="512.2121">
			<stop offset="0" stop-color="#9865FB"/>
			<stop offset="1" stop-color="#BA82FA"/>
		</linearGradient>
	</defs>
	<path fill="url(#gradient_0)" d="M789.853 64.3577C800.077 69.8491 808.585 85.088 818.989 91.8951C820.297 102.514 820.175 113.652 820.641 124.361C821.251 138.359 822.266 152.316 823.138 166.299L834.905 353.907Q843.695 468.867 850.619 583.954Q852.006 606.399 853.772 628.818C854.493 638.875 855.67 649.37 854.814 659.434C853.217 678.218 843.212 696.502 831.815 711.128C802.562 748.671 755.595 768.874 709.289 774.619C669.009 779.617 625.703 772.697 593.171 747.178C574.244 732.33 560.925 710.127 558.136 686.071C554.619 655.726 564.401 628.839 583.335 605.298C598.99 585.835 624.384 569.783 647.453 560.64C677.391 549.14 702.998 544.276 735.069 544.412C737.565 544.265 740.118 544.026 742.617 544.083C744.644 544.129 746.778 544.606 748.799 544.36C750.229 544.186 750.784 543.617 751.709 542.596C753.458 536.968 751.146 513.795 750.773 506.466Q745.813 416.903 738.761 327.481L736.135 285.558C735.703 278.874 735.541 272.085 734.703 265.438C734.308 262.308 733.556 257.303 730.777 255.395C728.76 254.01 725.711 254.031 723.389 254.323C718.039 254.997 712.603 257.21 707.434 258.73C698.331 261.406 689.146 263.841 680.012 266.417C674.643 267.931 669.118 269.943 663.623 270.873C663.485 270.896 663.347 270.916 663.208 270.938C645.666 276.032 628.341 281.683 610.862 286.957L455.505 333.564C431.226 340.702 407.114 348.639 382.58 354.865C376.836 356.653 367.707 359.261 364.793 365.089C360.494 373.687 365.25 425.747 366.216 438.748Q369.386 482.969 371.616 527.247L379.609 654.116Q381.241 682.581 383.739 710.983C385.736 733.584 388.329 756.749 388.156 779.45Q388.161 783.436 387.839 787.409Q387.517 791.381 386.869 795.314Q386.221 799.247 385.252 803.113Q384.283 806.979 382.999 810.753C368.67 851.688 331.525 879.365 292.21 894.099C251.002 909.542 199.185 914.207 158.191 895.622C129.5 882.614 108.63 861.315 97.5395 831.482C88.6579 807.591 91.5189 782.103 102.101 759.272C111.634 738.702 131.209 718.886 150.028 706.518C156.542 702.237 163.645 698.753 170.548 695.143C178.35 691.064 186.074 687.197 194.375 684.186C212.222 677.714 230.981 674.096 249.823 672.107C256.737 671.377 266.299 672.239 272.733 670.254C275.842 669.295 278.557 666.699 280.847 664.472C278.53 657.321 278.85 650.28 278.033 642.914L264.74 414.705Q261.298 361.598 258.632 308.448C257.6 288.466 256.003 268.287 256.051 248.292L255.453 229.192C257.758 228.247 260.117 227.396 262.443 226.503Q372.398 191.43 483.177 159.06L654.2 107.175C686.697 97.1617 719.333 87.773 751.647 77.1424C764.162 72.3931 777.149 68.6001 789.853 64.3577Z"/>
	<path fill="#3C096C" d="M793.506 123.527C794.657 123.603 795.995 123.631 797.054 124.132C798.664 124.894 799.985 126.241 800.471 127.998C800.977 129.821 800.681 131.694 799.654 133.281C798.293 135.381 796.544 135.767 794.253 136.338C793.045 136.269 791.864 136.196 790.724 135.751C789.276 135.185 787.976 133.953 787.452 132.475C786.976 131.132 787.186 129.675 787.731 128.392C788.826 125.815 791.071 124.607 793.506 123.527Z"/>
	<path fill="#3C096C" d="M791.55 93.4885C792.675 93.5241 793.729 93.5442 794.797 93.9405C796.598 94.6095 798.12 96.028 798.819 97.8287Q798.93 98.1225 799.012 98.4258Q799.094 98.729 799.146 99.0388Q799.198 99.3487 799.219 99.6621Q799.24 99.9754 799.231 100.289Q799.221 100.603 799.181 100.915Q799.141 101.227 799.071 101.533Q799 101.839 798.901 102.137Q798.801 102.434 798.672 102.721C797.655 105.038 795.951 105.821 793.735 106.716C792.574 106.697 791.28 106.742 790.156 106.432C788.472 105.969 786.956 104.547 786.193 103.003C785.454 101.508 785.499 99.8585 786.069 98.3231C787.046 95.6894 789.144 94.6108 791.55 93.4885Z"/>
	<path fill="#3C096C" d="M781.786 718.637C783.315 718.435 784.989 718.176 786.529 718.388C788.663 718.681 790.953 720.23 792.211 721.943C793.225 723.323 793.611 724.959 793.319 726.649C792.831 729.462 790.717 731.101 788.534 732.668C787.169 733.006 785.61 733.119 784.207 733.076C782.409 733.02 780.466 731.901 779.304 730.551Q779.075 730.282 778.873 729.991Q778.672 729.699 778.501 729.39Q778.33 729.08 778.192 728.754Q778.053 728.429 777.947 728.091Q777.842 727.753 777.771 727.407Q777.7 727.06 777.664 726.708Q777.629 726.356 777.629 726.002Q777.628 725.648 777.664 725.296C777.938 722.309 779.582 720.485 781.786 718.637Z"/>
	<path fill="#3C096C" d="M817.934 405.024C818.448 405.07 818.963 405.109 819.473 405.182C821.354 405.453 822.747 406.183 823.826 407.779C826.84 412.237 827.088 420.61 826.128 425.824C825.544 428.992 824.58 430.436 821.946 432.238C821.069 432.298 820.271 432.359 819.419 432.062C817.621 431.433 816.546 429.752 815.904 428.054C814.164 423.454 812.401 411.497 814.805 407.15C815.577 405.753 816.52 405.525 817.934 405.024Z"/>
	<path fill="#FDFDFB" d="M592.91 683.879C595.244 684.31 597.536 684.618 599.897 684.851C602.612 686.897 604.918 688.881 605.507 692.408C605.761 693.93 605.761 695.514 605.76 697.054C604.008 701.147 601.632 703.476 597.754 705.596C595.263 705.35 592.782 704.958 590.302 704.611C589.018 703.468 587.805 702.266 586.953 700.753C585.448 698.081 584.944 694.764 585.807 691.804C586.951 687.88 589.505 685.853 592.91 683.879Z"/>
	<path fill="#3C096C" d="M767.801 441.952C768.701 441.926 769.631 441.892 770.527 442.001C772.165 442.2 773.352 443.063 774.308 444.361C778.533 450.103 779.41 463.699 778.314 470.584C777.93 472.995 777.169 473.99 775.226 475.433C774.511 475.497 773.697 475.611 772.972 475.567C771.555 475.482 770.505 475.018 769.572 473.949C765.382 469.152 764.643 454.362 764.928 448.009C765.056 445.147 765.695 443.86 767.801 441.952Z"/>
	<path fill="#FDFDFB" d="M209.157 693.711C210.423 693.648 211.781 693.627 213.013 693.983C214.771 694.491 217.733 696.521 218.494 698.197C219.531 700.48 219.456 704.127 218.503 706.418C216.055 712.306 203.878 715.219 198.098 717.704C197.889 717.682 197.678 717.666 197.47 717.637C193.277 717.067 190.199 714.647 187.751 711.326C188.266 707.43 188.513 704.496 191.151 701.376C195.303 696.465 202.962 694.354 209.157 693.711Z"/>
	<path fill="#3C096C" d="M769.719 487.988C770.406 487.909 771.084 487.852 771.776 487.879C774.197 487.972 775.962 489.114 777.496 490.936C784.482 499.233 786.745 523.231 785.885 533.965C785.551 538.14 784.767 540.365 781.549 543.068C780.943 543.094 780.351 543.118 779.745 543.089C777.571 542.986 776.199 542.232 774.753 540.615C767.823 532.861 764.267 509.066 764.907 498.91C765.205 494.193 766.133 491.144 769.719 487.988Z"/>
	<path fill="#FDFDFB" d="M125.957 820.672C128.28 820.814 130.292 821.176 132.526 821.831C137.257 826.661 138.515 834.279 141.509 840.26C144.229 845.693 149.517 851.237 151.326 856.895C151.928 858.78 150.938 861.933 149.911 863.561C148.276 866.155 146.258 867.257 143.347 867.974C141.088 867.859 139.133 867.809 137.155 866.615C128.5 861.389 120.059 843.708 117.844 834.155C117.153 831.171 116.442 827.202 118.301 824.504C120.051 821.964 123.095 821.192 125.957 820.672Z"/>
	<path fill="#3C096C" d="M824.895 619.484C826.092 619.465 827.402 619.441 828.552 619.825C831.575 620.835 834.015 624.723 835.33 627.412C842.956 643.009 842.739 661.044 837.138 677.169C832.988 689.114 823.978 702.498 812.31 708.117C810.971 708.627 809.62 709.044 808.214 709.334C806.193 709.752 803.521 709.433 801.841 708.134C800.511 707.108 799.796 705.863 799.688 704.195C799.302 698.231 805.534 693.004 809.191 688.914C818.448 678.559 824.585 664.96 823.921 650.865C823.603 644.135 822.34 637.453 822.006 630.717C821.786 626.259 821.779 622.881 824.895 619.484Z"/>
	<path fill="#C77DFF" d="M382.58 354.865L382.269 353.274C384.938 350.111 395.741 346.954 400.021 345.241C422.727 336.153 445.973 328.539 469.266 321.106Q536.381 299.455 605.054 283.414C621.485 279.464 637.804 274.563 654.338 271.135C657.09 270.564 660.681 269.286 663.208 270.938C645.666 276.032 628.341 281.683 610.862 286.957L455.505 333.564C431.226 340.702 407.114 348.639 382.58 354.865Z"/>
	<path fill="#FDFDFB" d="M575.561 668.144C575.323 663.855 575.6 660.035 576.545 655.839C581.713 632.893 601.413 606.593 621.461 594.165C625.35 591.755 629.755 589.561 634.399 590.676C637.176 592.608 640.485 595.553 641.14 599.074C641.628 601.697 640.595 604.421 639.082 606.53C635.861 611.02 630.301 614.02 626.007 617.42C616.125 625.243 605.928 637.324 600.758 648.88C598.055 654.922 596.532 666.96 593.725 671.344C592.715 672.922 590.788 674.002 589.127 674.759C587.484 674.958 585.63 675.107 583.994 674.813C579.987 674.091 577.736 671.348 575.561 668.144Z"/>
	<path fill="#FDFDFB" d="M160.084 716.988C162.039 716.901 164.085 716.958 165.959 717.583C168.103 718.297 170.088 719.854 171.028 721.941C175.209 731.218 162.284 740.013 156.966 745.675Q151.499 751.566 146.984 758.216C140.242 768.268 134.411 781.49 133.722 793.716C133.433 798.848 134.403 805.622 132.316 810.325C131.193 812.854 127.78 814.089 125.409 815.028C123.209 815.081 120.56 815.386 118.47 814.626C116.715 813.988 115.166 812.11 114.415 810.46C110.784 802.482 117.633 776.32 120.863 767.955C126.836 752.484 144.41 723.969 160.084 716.988Z"/>
	<path fill="#3C096C" d="M799.878 162.487C800.669 162.568 801.469 162.712 802.181 163.097C803.692 163.914 804.088 165.672 804.424 167.205C806.659 177.398 807.34 192.455 808.353 203.197C810.908 230.283 813.008 257.276 814.961 284.408L818.851 342.434C819.543 352.794 820.955 363.693 820.719 374.038C820.692 375.249 820.711 377.048 819.95 378.043C818.418 380.044 815.243 379.885 812.94 380.097C812.146 379.425 811.603 378.887 811.241 377.89C809.584 373.323 809.425 367.401 808.826 362.567L805.511 335.248C802.526 310.335 785.798 181.73 793.059 167.504C794.582 164.521 796.796 163.433 799.878 162.487Z"/>
	<path fill="#3C096C" d="M352.78 682.488C347.65 653.477 346.546 624.287 343.975 594.995C341.747 569.619 339.386 544.3 338.539 518.829C338.271 510.776 337.456 502.166 338.155 494.157C338.353 491.896 338.861 489.281 340.875 487.913C342.601 486.741 344.198 487.192 346.048 487.649L346.292 488.204C346.501 488.671 346.721 489.134 346.959 489.587C354.906 504.695 359.976 582.79 361.592 603.267C362.781 618.34 364.459 633.234 364.977 648.37C365.352 659.32 366.774 677.378 363.308 687.654C362.5 690.051 361.515 691.64 359.541 693.208C358.816 693.356 358.39 693.637 357.706 693.228C354.68 691.417 353.581 685.73 352.78 682.488Z"/>
	<path fill="#3C096C" d="M701.72 226.993C706.011 227.009 712.823 226.26 716.154 229.419C717.164 230.378 718.009 232.33 717.766 233.777C717.486 235.441 716.396 236.336 715.015 237.158C708.01 241.323 697.661 244.555 689.905 247.156Q654.34 258.71 618.213 268.361L567.48 282.56C550.821 287.101 497.011 303.184 483.095 301.824C482.792 301.226 482.769 301.214 482.496 300.48C481.744 298.455 481.097 295.75 482.311 293.779C486.928 286.285 649.173 239.937 671.053 234.093Q686.237 229.897 701.72 226.993Z"/>
	<path fill="#C77DFF" d="M647.453 560.64C677.391 549.14 702.998 544.276 735.069 544.412C735.305 544.597 735.536 544.789 735.776 544.967C738.758 547.179 750.649 549.75 756.354 553.02C765.424 558.219 772.619 565.377 780.042 572.617C797.944 590.077 808.124 600.046 813.055 625.685C817.299 647.753 815.295 663.289 802.552 682.049C786.598 705.537 757.77 726.882 729.519 732.039C694.71 738.393 650.24 731.844 620.931 711.44C615.913 707.947 608.11 702.94 605.76 697.054C605.761 695.514 605.761 693.93 605.507 692.408C604.918 688.881 602.612 686.897 599.897 684.851C597.536 684.618 595.244 684.31 592.91 683.879C592.85 681.415 591.352 679.385 590.454 677.165C590.075 676.228 589.803 675.529 589.127 674.759C590.788 674.002 592.715 672.922 593.725 671.344C596.532 666.96 598.055 654.922 600.758 648.88C605.928 637.324 616.125 625.243 626.007 617.42C630.301 614.02 635.861 611.02 639.082 606.53C640.595 604.421 641.628 601.697 641.14 599.074C640.485 595.553 637.176 592.608 634.399 590.676C638.543 577.89 651.526 578.7 657.085 568.147C654.299 565.044 650.907 562.918 647.453 560.64Z"/>
	<path fill="#FDFDFB" d="M707.769 557.668C710.53 557.447 713.304 557.903 716.048 558.209C718.705 559.923 720.904 562.272 722.017 565.283C722.898 567.667 722.638 570.246 721.459 572.482C719.898 575.443 716.901 577.386 713.866 578.585C708.72 580.617 702.616 581.128 697.18 582.224Q688.593 584.015 680.236 586.68C676.863 587.491 672.654 588.173 669.542 586.182C667.485 584.866 666.228 581.885 665.815 579.569C665.29 576.623 666.144 573.751 667.968 571.413C672.947 565.032 699.252 558.695 707.769 557.668Z"/>
	<path fill="#C77DFF" d="M751.647 77.1424C760.893 86.5466 766.179 112.936 766.031 125.684C765.684 155.703 751.872 184.934 730.496 205.71C724.043 211.981 709.719 223.24 701.72 226.993Q686.237 229.897 671.053 234.093C649.173 239.937 486.928 286.285 482.311 293.779C481.097 295.75 481.744 298.455 482.496 300.48C482.769 301.214 482.792 301.226 483.095 301.824C478.721 304.504 450.051 310.985 442.984 312.893C432.253 315.79 421.617 319.06 410.902 322.023C394.459 326.571 377.942 330.886 361.585 335.718C356.418 337.245 349.797 337.22 345.134 339.932C344.245 340.449 343.795 342.86 343.39 343.86C349.821 373.457 357.725 420.892 344.571 449.348C344.528 449.441 344.523 449.546 344.5 449.645C345.196 450.999 346.963 483.602 346.537 486.5C346.459 487.031 346.295 487.235 346.048 487.649C344.198 487.192 342.601 486.741 340.875 487.913C338.861 489.281 338.353 491.896 338.155 494.157C337.456 502.166 338.271 510.776 338.539 518.829C339.386 544.3 341.747 569.619 343.975 594.995C346.546 624.287 347.65 653.477 352.78 682.488L352.05 682.694C344.186 676.499 337.08 669.297 328.919 663.415C321.674 658.193 311.28 653.649 302.861 650.602C297.277 648.581 281.109 644.975 278.033 642.914L264.74 414.705Q261.298 361.598 258.632 308.448C257.6 288.466 256.003 268.287 256.051 248.292L255.453 229.192C257.758 228.247 260.117 227.396 262.443 226.503Q372.398 191.43 483.177 159.06L654.2 107.175C686.697 97.1617 719.333 87.773 751.647 77.1424Z"/>
	<path fill="#3C096C" d="M642.403 125.078C642.941 125.178 643.482 125.265 644.011 125.404C645.63 125.831 647.283 126.598 648.179 128.056C648.26 129.218 648.333 129.69 647.756 130.753C645.475 134.958 639.11 137.543 634.687 138.679C633.343 138.627 632.239 138.363 630.985 137.861C629.53 137.279 628.989 136.707 628.393 135.281C628.472 134.303 628.608 133.754 629.11 132.884C631.586 128.593 637.822 126.23 642.403 125.078Z"/>
	<path fill="#3C096C" d="M290.982 611.759C293.275 611.805 294.881 612.08 296.529 613.777C300.603 617.975 301.38 626.465 301.153 632.101C300.992 636.086 300.359 638.071 297.398 640.764C296.742 640.934 295.992 641.171 295.309 641.239C293.938 641.376 293.038 641.088 291.958 640.23C289.758 638.483 288.883 634.674 288.521 632.052C287.631 625.603 286.82 617.192 290.982 611.759Z"/>
	<path fill="#FDFDFB" d="M288.436 343.096C288.406 340.28 288.423 338.711 290.378 336.613C291.51 335.399 292.994 334.804 294.641 334.803C299.591 334.801 303.87 338.607 307.102 341.974C308.711 349.436 308.042 358.101 308.295 365.734C308.712 378.313 310.38 396.965 308.823 409.021C308.494 411.562 307.75 413.194 306.429 415.346L300.15 417.446C297.395 416.05 292.718 413.303 291.103 410.685L288.436 343.096Z"/>
	<path fill="#3C096C" d="M344.5 449.645C342.709 449.613 341.084 449.345 339.795 447.975C333.306 441.077 330.186 362.074 331.337 348.376C331.562 345.701 332.179 342.667 334.445 340.938C335.72 339.965 337.525 339.694 339.074 340.039C341.187 340.51 342.282 342.153 343.39 343.86C349.821 373.457 357.725 420.892 344.571 449.348C344.528 449.441 344.523 449.546 344.5 449.645Z"/>
	<path fill="#FDFDFB" d="M262.443 226.503C262.702 226.618 262.957 226.74 263.219 226.846C264.775 227.473 266.571 227.34 268.224 227.474C274.237 227.964 277.74 231.53 280.106 236.855C280.44 237.607 280.547 238.281 280.576 239.097C280.31 239.674 280.302 240.181 279.654 240.381C278.888 240.618 278.187 240.559 277.398 240.54C279.159 241.067 280.076 241.14 281.356 242.495L281.88 244.586C284.239 243.997 284.904 242.857 286.19 240.926C288.946 240.199 291.933 239.208 294.759 238.88C297.45 238.567 298.832 239.426 300.788 241.127C301.501 242.278 302.131 243.39 302.33 244.749C303.57 253.224 302.621 263.016 302.539 271.606C302.424 283.771 303.198 296.781 301.603 308.803C299.323 310.962 296.727 313.396 293.344 313.192C290.171 313.002 288.263 311.036 285.948 309.119C283.821 309.051 281.553 308.798 279.451 309.108C277.489 310.224 275.935 310.977 275.238 313.266C274.812 314.667 274.728 316.207 274.59 317.659C271.936 314.664 268.951 312.704 265.589 310.615C264.256 297.256 264.464 283.227 264.408 269.795C264.385 264.377 265.385 256.706 264.053 251.562C263.182 252.311 262.381 252.831 261.221 253.043C259.975 253.271 258.765 253.169 257.735 252.377C256.316 251.286 256.387 249.933 256.051 248.292L255.453 229.192C257.758 228.247 260.117 227.396 262.443 226.503Z"/>
	<path fill="#E0AAFF" d="M286.19 240.926C288.946 240.199 291.933 239.208 294.759 238.88C297.45 238.567 298.832 239.426 300.788 241.127C296.275 241.467 289.679 241.271 285.639 243.216C285.142 244.022 285.223 244.174 285.288 245.151C285.413 247.017 284.559 250.357 283.353 251.762C283.177 251.967 282.983 252.155 282.798 252.352C282.396 249.772 282.142 247.182 281.88 244.586C284.239 243.997 284.904 242.857 286.19 240.926Z"/>
	<path fill="#3C096C" d="M277.398 240.54C279.159 241.067 280.076 241.14 281.356 242.495L281.88 244.586C282.142 247.182 282.396 249.772 282.798 252.352C283.457 258.688 286.344 285.768 283.713 290.016C283.15 290.925 282.563 291.216 281.498 291.386C279.227 291.748 277.464 291.46 275.59 290.135C273.2 286.456 273.552 252.99 273.982 246.674C274.185 243.7 275.205 242.479 277.398 240.54Z"/>
	<path fill="#3C096C" d="M279.451 309.108C281.633 309.33 283.687 309.267 285.145 311.156C287.851 314.661 287.172 336.894 288.436 343.096L291.103 410.685C291.894 419.597 292.019 428.655 292.507 437.595Q293.891 460.778 294.874 483.982C295.37 498.219 295.438 512.462 295.908 526.697L297.63 572.813C297.85 578.803 298.635 585.15 298.46 591.096C298.427 592.214 298.204 593.417 297.466 594.297C296.715 595.192 295.118 595.937 293.927 595.985C292.733 596.033 291.766 595.725 290.888 594.898C286.402 590.673 286.779 576.444 285.966 570.459C283.854 554.928 282.934 539.314 281.511 523.711Q277.047 472.326 275.315 420.777Q273.584 369.228 274.59 317.659C274.728 316.207 274.812 314.667 275.238 313.266C275.935 310.977 277.489 310.224 279.451 309.108Z"/>
	<path fill="#3C096C" d="M594.284 139.584C595.738 139.41 597.7 139.149 599.085 139.651C600.092 140.017 600.727 141.251 601.046 142.213C601.508 143.603 601.994 146.108 601.112 147.39C599.826 149.262 597.194 150.506 595.183 151.388C588.553 154.294 581.347 156.392 574.496 158.78L541.457 170.482Q476.774 193.064 411.528 213.966Q381.599 223.085 351.537 231.755C337.202 235.835 322.481 238.313 307.997 241.819C306.825 241.958 305.328 242.176 304.194 241.807C302.696 241.32 301.591 240.029 301.052 238.595C300.386 236.825 300.198 234.724 301.137 233.032C303.756 228.312 317.07 226.446 322.088 225.951C325.455 225.619 329.609 225.879 332.784 224.758C336.817 223.334 340.829 220.405 344.659 218.443C349.654 215.883 355.011 213.913 360.28 211.988Q407.991 194.906 456.046 178.821C491.799 166.832 527.414 155.044 564.06 146C574.044 143.536 584.226 141.741 594.284 139.584Z"/>
</svg>
