<svg id="Слой_1" data-name="Слой 1" xmlns="http://www.w3.org/2000/svg" viewBox="0 0 387.84 385.3">
  <defs>
    <style>
      .cls-1 {
        fill: currentColor;
      }
    </style>
  </defs>
  <path class="cls-1" d="M505.35,319.26c50.16-1,98.47,15.73,135.7,49.67,1.22,1.1,2.43,2.23,3.63,3.36s2.38,2.29,3.55,3.46,2.32,2.35,3.46,3.54,2.26,2.41,3.37,3.63,2.2,2.46,3.28,3.71,2.14,2.52,3.19,3.79,2.07,2.57,3.08,3.88,2,2.62,3,3.94,1.94,2.67,2.89,4,1.88,2.72,2.79,4.1,1.81,2.76,2.69,4.16,1.74,2.8,2.58,4.22,1.67,2.85,2.48,4.29,1.6,2.89,2.37,4.35,1.52,2.93,2.26,4.41,1.45,3,2.15,4.46,1.37,3,2,4.51,1.3,3,1.93,4.57,1.22,3.06,1.8,4.61,1.15,3.09,1.7,4.65,1.07,3.13,1.57,4.7,1,3.15,1.46,4.73.91,3.18,1.34,4.77.83,3.19,1.22,4.8.75,3.22,1.1,4.83.67,3.23,1,4.85.59,3.25.86,4.88.51,3.27.73,4.9.43,3.27.61,4.91.35,3.29.49,4.93.27,3.29.37,4.94.18,3.3.24,4.95c2.1,48.88-19.27,98.3-52,133.91q-1.6,1.75-3.26,3.46c-1.11,1.13-2.22,2.26-3.35,3.37s-2.28,2.2-3.44,3.28-2.32,2.15-3.51,3.21-2.38,2.09-3.59,3.11-2.43,2-3.66,3-2.49,2-3.74,2.94-2.53,1.9-3.82,2.83-2.57,1.85-3.88,2.75-2.62,1.78-3.94,2.64-2.66,1.72-4,2.55-2.71,1.65-4.07,2.45-2.75,1.59-4.14,2.35-2.78,1.52-4.19,2.25-2.82,1.44-4.24,2.14-2.85,1.37-4.29,2-2.89,1.31-4.35,1.93-2.92,1.23-4.39,1.82-2.94,1.16-4.43,1.71-3,1.09-4.47,1.61-3,1-4.52,1.49-3,.94-4.54,1.38-3.05.86-4.58,1.26-3.07.79-4.61,1.15-3.09.72-4.64,1-3.11.64-4.66.93-3.12.55-4.69.81-3.13.48-4.7.69-3.14.4-4.72.57-3.15.33-4.73.46-3.15.25-4.74.34-3.16.17-4.74.23c-52.23.73-98.13-14.57-137.35-49.67-39-34.93-60.73-82.33-63.5-134.41-2.73-51.16,16.59-100.52,50.6-138.3C404.15,343.49,453.84,321.93,505.35,319.26Zm5.26,43.46c-41.51,2.19-80.16,17.35-108.38,48.75C376.4,440.2,360.85,479.3,363,518.14c.06,1.23.14,2.47.23,3.7s.21,2.47.33,3.7.27,2.46.42,3.69.32,2.45.51,3.68.38,2.44.6,3.66.44,2.43.69,3.65.5,2.42.78,3.63.56,2.41.87,3.61.62,2.39,1,3.58.68,2.38,1.05,3.57.74,2.36,1.13,3.53.8,2.34,1.22,3.51.86,2.32,1.31,3.47.91,2.3,1.39,3.44,1,2.28,1.48,3.41,1,2.25,1.56,3.37,1.08,2.22,1.65,3.33,1.13,2.19,1.72,3.28,1.19,2.17,1.81,3.25,1.24,2.14,1.89,3.2,1.29,2.1,2,3.14,1.35,2.08,2,3.11,1.4,2,2.12,3.05,1.45,2,2.19,3,1.5,2,2.27,2.94,1.55,1.93,2.34,2.89,1.59,1.89,2.4,2.82,1.65,1.86,2.48,2.77,1.69,1.81,2.55,2.7,1.73,1.77,2.61,2.64,1.77,1.73,2.67,2.57,1.82,1.69,2.74,2.51c28.12,25,63.66,36.2,100.79,37,41-1.68,79.47-17,107.66-47.49.82-.89,1.63-1.8,2.43-2.71s1.59-1.83,2.37-2.76,1.54-1.87,2.29-2.82,1.5-1.91,2.23-2.87,1.45-2,2.15-2.93,1.4-2,2.08-3,1.35-2,2-3,1.3-2,1.93-3.09,1.25-2.07,1.85-3.12,1.2-2.11,1.78-3.17,1.15-2.14,1.7-3.22,1.09-2.16,1.62-3.26,1-2.19,1.53-3.29,1-2.22,1.46-3.33.93-2.24,1.37-3.37.87-2.26,1.29-3.4.82-2.28,1.21-3.43.76-2.3,1.11-3.46.71-2.32,1-3.48.64-2.34.94-3.51.59-2.36.87-3.54.53-2.36.77-3.55.47-2.38.68-3.57.42-2.39.6-3.59.35-2.39.51-3.6.29-2.4.42-3.61.23-2.41.33-3.62.17-2.42.24-3.63.11-2.42.15-3.63.05-2.42.06-3.64,0-2.42,0-3.63-.07-2.42-.12-3.63-.14-2.48-.23-3.72-.19-2.47-.31-3.7-.26-2.46-.41-3.7-.32-2.45-.5-3.68-.38-2.45-.59-3.67-.44-2.44-.68-3.66-.5-2.42-.77-3.63-.56-2.42-.86-3.62-.62-2.4-1-3.59-.68-2.39-1-3.57-.73-2.37-1.12-3.55-.8-2.35-1.21-3.51-.86-2.33-1.3-3.49-.91-2.3-1.39-3.45-1-2.28-1.47-3.41-1-2.26-1.55-3.38-1.08-2.23-1.63-3.34-1.14-2.2-1.72-3.3-1.19-2.17-1.8-3.25-1.24-2.15-1.88-3.21-1.29-2.12-1.95-3.16-1.35-2.08-2-3.11-1.39-2.05-2.11-3.06-1.44-2-2.18-3-1.5-2-2.26-2.95-1.55-1.95-2.33-2.9-1.59-1.9-2.4-2.84-1.64-1.86-2.48-2.78-1.68-1.82-2.53-2.71-1.73-1.78-2.61-2.66-1.77-1.73-2.67-2.58-1.81-1.7-2.73-2.53c-25.92-23.48-63.77-39.5-99-38.15C511.3,362.66,511,362.7,510.61,362.72Z" transform="translate(-318.55 -319.22)"/>
  <path class="cls-1" d="M510,399.16a27.57,27.57,0,0,1,16.43,4.43l1.06.76c.35.26.69.53,1,.81l1,.86c.33.3.64.6.95.91s.6.63.89.95.58.66.85,1,.55.68.8,1,.51.71.75,1.07.48.73.7,1.11.44.75.65,1.14.4.77.58,1.17.36.79.53,1.19.32.81.47,1.22.28.83.41,1.24.24.84.35,1.27.2.84.29,1.27a27.75,27.75,0,0,1-4.79,21.06c-4.57,6.35-10.95,9.43-18.5,10.52-6.39-.09-12.13-1-17.56-4.7l-1.1-.8c-.36-.28-.71-.57-1.06-.86s-.68-.6-1-.91-.65-.63-1-1-.62-.66-.91-1-.59-.69-.87-1.05-.54-.72-.8-1.09-.52-.75-.76-1.14-.47-.77-.69-1.17-.43-.8-.63-1.2-.39-.82-.57-1.24-.35-.84-.51-1.26-.3-.86-.44-1.29-.26-.87-.37-1.31-.22-.88-.31-1.32-.17-.9-.24-1.34A26.72,26.72,0,0,1,490.76,409C495.71,402.7,502.28,400.08,510,399.16Z" transform="translate(-318.55 -319.22)"/>
  <path class="cls-1" d="M470.43,473.6c23.05.71,46.34.41,69.4.1.6,14.81-.27,29.54-.36,44.34v79.5c4.93,0,9.88-.12,14.81-.2.5,10.26.14,20.76.18,31l-17.55,0L469.17,628c-.24-10.3-.06-20.6-.42-30.9q8.29-.06,16.59.23c.39-29.92.19-59.88.18-89.81-5.09.05-10.19.31-15.28.49Q470.53,490.79,470.43,473.6Z" transform="translate(-318.55 -319.22)"/>
</svg>
