<svg id="ac915a6e-d495-4f8f-99d3-9189a44f6a63" data-name="Слой 1" xmlns="http://www.w3.org/2000/svg" viewBox="0 0 305.33 303.85">
  <defs>
    <style>
      .af8e7f82-77fd-47b9-a1c8-1b65d5c0ce40 {
        fill: currentColor;
        fill-rule: evenodd;
      }
    </style>
  </defs>
  <path class="af8e7f82-77fd-47b9-a1c8-1b65d5c0ce40" d="M155.09,7.25a31,31,0,0,1,39.85,47.5L144.78,96.84c-10.72,9-4.36,26.49,9.65,26.49h122.9a28,28,0,0,1,0,56H153c-14,0-20.37,17.49-9.64,26.49L195,249.1a31,31,0,1,1-39.86,47.49l-144-120.84A30.92,30.92,0,0,1,0,153c0-.09,0-.18,0-.27s0-.2,0-.3A30.94,30.94,0,0,1,11.07,128.1Z" transform="translate(0 0)"/>
</svg>
