<svg width="24px" id="aa431a81-1680-4e3d-94c8-d6a6fd1c0370" data-name="Слой 1" xmlns="http://www.w3.org/2000/svg" viewBox="0 0 337.12 339.58"><defs><style>.fcdd987c-d3c6-4726-83a6-04d30f328d72{fill:currentColor}</style></defs><path class="fcdd987c-d3c6-4726-83a6-04d30f328d72" d="M637.08,576.09c14.1-.31,28.25,0,42.35,0l-.4,50.2c0,10.94,1,22.7-.36,33.55a22,22,0,0,1-2.81,8.62c-.21.36-.43.72-.65,1.07s-.46.7-.71,1-.5.67-.76,1-.53.65-.81,1-.57.62-.86.91-.6.59-.9.87-.63.56-.95.82-.66.52-1,.77-.68.49-1,.72-.71.45-1.07.66l-1.09.61-1.13.55-1.15.49c-.39.15-.79.29-1.18.42s-.8.26-1.2.37-.81.22-1.22.31c-7.56,1.61-23.32.55-31.84.54l-66.25,0-130.49,0-38.48,0c-8,0-16.08.39-24-.08-6.35-.38-11.17-.86-16.48-4.6-6.07-4.28-8.7-10.24-9.94-17.33-.63-9.57-.16-19.27-.12-28.86q.17-26.65.06-53.31,20.94.27,41.87,0c0,20.91-.29,41.88.22,62.78l164.15.09c29.44,0,59.06-.73,88.48.1C636.51,618.32,637.23,597.11,637.08,576.09Z" transform="translate(-342.31 -341.31)"/><path class="fcdd987c-d3c6-4726-83a6-04d30f328d72" d="M491,341.42q13.05.22,26.08.1c5.37,0,11.22-.57,16.5.24,1.72,5.2.75,40.57.76,49l0,129.44q28.4-27.18,55.13-56c4.31,3.42,8.22,7.71,12.13,11.59q10.41,10.41,21,20.67L559.7,561c-11.19,11.51-21.86,24.38-34.45,34.39a21.05,21.05,0,0,1-14,5c-5.16-.13-8.91-2.46-12.85-5.55-6-4.68-11.25-10.45-16.52-15.89l-24.42-25.42c-18.53-19.12-37.9-37.56-56.1-57q17.25-15.69,33.14-32.75c18.94,19.38,37.72,38.81,56.94,57.93Z" transform="translate(-342.31 -341.31)"/></svg>