<svg id="e43569e8-3e96-4258-9002-3c0b1cbdc92d" data-name="Слой 1" xmlns="http://www.w3.org/2000/svg" viewBox="0 0 56.52 46" fill="currentColor">
  <path d="M15.35,0H12.74a7.76,7.76,0,0,1-1.39.23A14.09,14.09,0,0,0,1,19.09a12.87,12.87,0,0,0,2.23,3.78c1,1.17,2.15,2.31,3.17,3.46.4.44,1,1,1.51,1.44L14.14,34l7.79,7.8c1,1,2,2,3,3a3.5,3.5,0,0,0,1,.59,9.76,9.76,0,0,0,1.38.47A6.26,6.26,0,0,1,28,46h.72a4.68,4.68,0,0,1,.78-.19c2.13-.35,3.18-1.85,4.67-3.35l3.55-3.55,9.08-9.09c1.75-1.76,3.59-3.4,5.2-5.29a21.29,21.29,0,0,0,2.73-3.47A14.92,14.92,0,0,0,56.25,17c.1-.45.13-1.17.27-1.56V12.77a2.87,2.87,0,0,1-.12-.65,14.24,14.24,0,0,0-1.87-5.36,13.32,13.32,0,0,0-2.31-2.82A14.06,14.06,0,0,0,34.1,2.86c-1.18.92-2.14,2.19-3.48,2.83A5.55,5.55,0,0,1,23.91,4,13.32,13.32,0,0,0,17,.27,13.18,13.18,0,0,1,15.35,0Z" transform="translate(0)"/>
</svg>
