<svg id="a6794ee8-2019-4a21-ba5f-2d8e0f8035e8" data-name="Слой 1" xmlns="http://www.w3.org/2000/svg" viewBox="0 0 58 47.77">
  <defs>
    <style>
      .b96a4682-9b33-4148-abe4-b9780ca1de7e {
        fill: currentColor;
        fill-rule: evenodd;
      }
    </style>
  </defs>
  <path class="b96a4682-9b33-4148-abe4-b9780ca1de7e" d="M53.05,42.68c2.25,0,5.32-.53,4.91,2.56-.23,1.73-2.09,2.37-3.84,2.4-10.59.18-22,0-32.49,0H8.75c-2.53,0-9.27,1-8.72-2.46.28-1.74,2.06-2.44,3.82-2.44l33.59,0C42.64,42.68,47.87,42.66,53.05,42.68ZM22.46.82c3-.4,7.68-.21,8.46.36s.57.31.68,1c.13,1.16.2,8.66.11,9.35-.41,3,.5,21.72-.13,26.78a1.79,1.79,0,0,1-1.3,1.59,25.19,25.19,0,0,1-7.1.31A3.44,3.44,0,0,1,20,36.69c-.37-7.29-.33-25.51-.09-32.6C20,2.44,20.83,1,22.46.82ZM9,.68a46.35,46.35,0,0,1,5.55.09,3,3,0,0,1,2.63,3c.43,7.83-.14,30.48.06,34.82.06,1.28-1.87,1.53-3.16,1.57a46.22,46.22,0,0,1-5.77-.07A2.94,2.94,0,0,1,5.6,37.38c0-.18,0-.36,0-.53C5.5,25.64,5.67,14.43,5.5,3.22V3C5.52,1.34,7.39.73,9,.68ZM42.78.05c2.7-.49,2.94,2.6,3.14,4.62.42,4.39,4.67,19.61,6.15,27.9.58,3.24-1.06,6-4.28,6.66-1.68.36-3.36.63-4.24.81s-2.13.14-2.35-.9c-2.5-11.46-4.89-23-7.32-34.44a2.83,2.83,0,0,1,2.18-3.17C38.22.85,41.15.38,42.78.05ZM28.46,34.18c-1.08-.79-3.83-.46-5.25-.41-.23,1-.31.69,0,1.51,1.24.82,3.55.36,5.13.36C28.68,34.68,28.72,35,28.46,34.18ZM13.79,34c-1.43-.64-3.51-.25-5.16-.25,0,1.06-.15.81.35,1.55,1.38.63,3.51.33,5.08.23C14.13,34.49,14.28,34.75,13.79,34Zm33.74-1.4a7.21,7.21,0,0,0-3.78,1.27c-.32.56-.35.35-.31.84l.57.53.78-.16c1.38-.28,3.37-.45,4.15-1.52-.18-.71,0-.45-.65-1ZM43.31,9.43c-1.44.27-4.32.6-5.2,1.69l-.09.5a2.13,2.13,0,0,0,1,.64c1.46-.27,4.26-.62,5.2-1.71L44.4,10A1.92,1.92,0,0,0,43.31,9.43Zm-29.12,1c-1.4-.75-4-.31-5.75-.31,0,1.27-.2.91.42,1.66,1.61.6,3.75.28,5.52.16C14.51,10.88,14.63,11.18,14.19,10.41Zm14.46.1c-1.24-.88-4-.4-5.72-.41-.2,1.06-.31.78.1,1.55,1.3.75,3.85.33,5.48.35C28.85,11,28.92,11.31,28.65,10.51ZM42.76,5.39c-.21,0-.94.06-1.1.1-1.53.26-3.52.34-4.4,1.5.26.81,0,.49.72,1l1.13-.08c1.48-.28,3.48-.4,4.32-1.55C43.2,5.59,43.4,5.91,42.76,5.39Zm-28.43.93c-1.21-.85-4.08-.38-5.69-.4-.28,1-.33.64-.05,1.47,1.2.86,4,.48,5.61.4C14.54,6.82,14.61,7.11,14.33,6.32Zm14.22,0c-1.29-.8-3.94-.36-5.58-.37-.23,1-.33.75.05,1.54,1.27.77,3.87.33,5.49.33C28.84,6.77,28.9,7.1,28.55,6.3Z" transform="translate(0 0)"/>
</svg>
