<svg id="a981daaf-5e40-4bfa-8b82-753cbd68db65" data-name="Слой 1" xmlns="http://www.w3.org/2000/svg" viewBox="0 0 646.1 206.05">
  <defs>
    <style>
      .e7d83965-5d92-43f3-ae54-8b712e1c3722 {
        fill: currentColor;
      }
    </style>
  </defs>
  <path class="e7d83965-5d92-43f3-ae54-8b712e1c3722" d="M395.72,412.44c4.6,1.54,8.73,5.17,12.86,7.72,8.7,5.38,18.67,8.41,28.66,10.28-8.45,2-16.13,4.38-23.53,9.06-3,1.91-17.34,14.14-18.21,14.4a4.12,4.12,0,0,1-1.35-.07c-15.06-15-22.1-18.77-43-23C368,428.33,381.56,421.54,395.72,412.44Z" transform="translate(-188.96 -412.44)"/>
  <path class="e7d83965-5d92-43f3-ae54-8b712e1c3722" d="M379.36,461.49h34.76c.76,13.32.24,26.9.19,40.25q-.27,38.67-.14,77.36-17.35-.15-34.71,0c-.71-14.56-.2-29.31-.17-43.88Z" transform="translate(-188.96 -412.44)"/>
  <path class="e7d83965-5d92-43f3-ae54-8b712e1c3722" d="M674.41,421.62c11.85-.17,23.72.16,35.58.25l0,107.62q0,14.88.25,29.77c.1,6.82.49,13.78-.12,20.57-11.74-.94-23.92-.29-35.7-.24l0-105.87C674.39,456.51,673.05,438.76,674.41,421.62Z" transform="translate(-188.96 -412.44)"/>
  <path class="e7d83965-5d92-43f3-ae54-8b712e1c3722" d="M490.93,460.7c1.06-.1,2.13-.18,3.19-.23,12-.54,24.63,2.35,33.66,10.7.59.53,1.16,1.09,1.7,1.67s1.07,1.17,1.57,1.78,1,1.25,1.44,1.9.88,1.32,1.29,2,.78,1.38,1.13,2.09.69,1.43,1,2.17.57,1.48.81,2.23.47,1.52.65,2.29c2.73,11.44,1.07,25.24,1.06,37q-.12,27.39.58,54.76c-13.58-.07-27.52-.67-41.06.24-.58-15.29-.2-30.71-.24-46,0-9,.25-18.15-1.23-27-.92-5.55-3.18-11.22-8-14.49a12.61,12.61,0,0,0-9.72-2c-4.82,1.06-7.81,4.56-10.31,8.55-8.06,18.7-4.41,58.75-4.7,80.62q-17.85.12-35.69,0c-.81-39,1.15-78.15.11-117.24,11.28.45,22.61.29,33.89.33a83.8,83.8,0,0,1-1.25,15.08q.84-1.17,1.77-2.28C470.12,465.57,479.31,461.92,490.93,460.7Z" transform="translate(-188.96 -412.44)"/>
  <path class="e7d83965-5d92-43f3-ae54-8b712e1c3722" d="M771.68,461.21c1.1-.12,2.2-.19,3.31-.22,15.88-.37,31.69,3.91,43.32,15.14,15.32,14.79,16.3,34.34,16.75,54.32-27.08,0-54.11-.36-81.2.17,1.08,5.8,2.77,11.37,6.67,15.94a21.78,21.78,0,0,0,15.26,7.55c10.73.88,17.89-4.21,25.47-10.83,9.92-.82,22.57-1.17,32.4.36a43.32,43.32,0,0,1-9.18,18.78c-9.48,11.84-23.14,17.46-38,18.94-17.26,1.73-36.23-2.48-49.77-13.71-11.49-9.52-17.89-23.61-19.21-38.32-1.56-17.33,2.26-35.58,13.72-49.09C741.68,468,756,462.55,771.68,461.21Zm5.19,27.5c-6.84.71-13.26,2.4-17.74,8.07-2.72,3.44-4.07,7.53-5.22,11.69l28.84.07c7,0,14-.07,21,.35-3-7.89-7.38-14.74-15.47-18.28A26.09,26.09,0,0,0,776.87,488.71Z" transform="translate(-188.96 -412.44)"/>
  <path class="e7d83965-5d92-43f3-ae54-8b712e1c3722" d="M291.44,481.12a58.5,58.5,0,0,1,7.64-9.87,37.62,37.62,0,0,1,27.21-11.37c9.95-.08,19.9,3.2,27,10.31,5.67,5.66,9,13.32,10.59,21.07,2.5,12,1.2,24.63,1.15,36.79l0,51-36.89-.18c-.67-17.12,0-34.32.2-51.44.1-7.28,1-15.43-.09-22.62a18.35,18.35,0,0,0-3.92-9.23,15.45,15.45,0,0,0-11.08-5.46c-4.41-.26-8.6.6-11.85,3.72s-4.9,7.54-5.74,11.84c-1.54,7.88-.81,16.3-.76,24.3l.09,32.24,0,16.52c-12.15-.31-24.38.1-36.54.26-.18-15.93-.08-31.88,0-47.81.06-8.69.84-18.07-.4-26.67-.49-3.32-1.34-6.74-3.62-9.31-2.91-3.28-7.46-4.78-11.75-4.87a17.4,17.4,0,0,0-13,5c-2.72,2.83-4,6.32-4.66,10.11-1.65,9.14-.73,18.92-.72,28.18l-.05,45.4-35.39,0,0-116h35c-.37,4.43-.31,8.92-.38,13.37,8.25-9.3,15.68-14.6,28.18-16.27a39.68,39.68,0,0,1,16.57,1.14C279.05,464.34,286.13,471.68,291.44,481.12Z" transform="translate(-188.96 -412.44)"/>
  <path class="e7d83965-5d92-43f3-ae54-8b712e1c3722" d="M593.26,462.21a34.63,34.63,0,0,1,5-.13c12.5.19,21.09,5.34,29.55,14.19-.22-4.39.09-8.91.18-13.31q16.75.07,33.51.53v67.76c0,17,2,39-2.28,55.12a37.8,37.8,0,0,1-18.33,23.8c-18.25,10.27-44.43,10.08-64.12,4.58-11.16-3.13-19.35-8.57-25-18.77a62.93,62.93,0,0,1-2.77-9.43c7.91-.09,29-1.53,35.68-.12,3.35.71,6.43,2.76,9.77,3.62,7,1.8,16.21,1.26,22.32-2.73,8.84-5.78,9-15.53,11.08-24.75-7.23,8.44-14.7,12.55-25.81,13.57-13.84,1.26-29.83-2.19-40.64-11.28-11.47-9.65-15.89-24.16-17.07-38.63-1.35-16.69,1.62-35.92,12.9-49C566.55,466.4,579.46,463.14,593.26,462.21Zm9.09,28.42c-6.42,1.4-11.21,4.07-14.77,9.84-5.15,8.36-5.86,19.9-3.44,29.25,1.69,6.5,5.39,12.4,11.33,15.81a23.16,23.16,0,0,0,13.85,2.75c6.33-1.77,10.89-5,14.27-10.76,5-8.49,6-20.1,3.28-29.49-1.74-6-5.39-11.67-11-14.82C611.59,490.77,607.18,490.44,602.35,490.63Z" transform="translate(-188.96 -412.44)"/>
</svg>
