<svg id="badd2ae6-9bf8-4a4f-8f47-9b05d7b523cc" data-name="Слой 1" xmlns="http://www.w3.org/2000/svg" viewBox="0 0 624 199.09" fill="currentColor">
  <path d="M309.12,44.32c.64-.06,1.28-.1,1.93-.11,20.85-.13,31.63,14.32,33.34,33.89,1,11.3.52,22.39.5,33.7l0,54c-14.69.3-30.68,0-45.46,0-.56-25.88,1.24-52.79-1-78.59-.53-6.18-7.65-6.15-9.4-3.31-4.22,6.88-3,22.24-3,30.47.27,16.88,0,34.49,0,51.43-14.86.15-30.1,0-45,0,.31-11.52-.06-25.14-.06-36.88l0-82.65q19.72-.33,39.46,0c-.3,2.82-1.67,20.7,0,22.17C284.71,66.51,284.52,46.91,309.12,44.32Z"/>
  <path d="M464.45,12.26l27-.08c5.77,0,12.5-.14,18.2.24l.07,104,0,31.17c0,5.25.24,13.14-.23,18.22l-44.85,0c-.33-14.09-.09-28.34-.08-42.46l0-67C464.61,42.3,465.07,26.21,464.45,12.26Z"/>
  <path d="M187.67,53.72c4.94-.24,11.18-.12,16.21-.11l28.34.14c.83,21.94.13,45.86.11,68v27.5c0,4.91.22,11.47-.21,16.2-2.41.92-38.88.43-44.41.42l-.09-64.47C187.57,85.33,187.28,69.77,187.67,53.72Z"/>
  <path d="M46,69.39c1.9-2.6,3.06-6,4.64-8.8,9.9-17.77,33.72-21.3,49.58-9.56,6,4.45,8.12,9.78,10.67,16.46C116.1,57.37,121.14,49.65,132.56,46c8.39-2.72,20.19-1.91,28,2.1,20.53,10.53,18.73,37.39,18.55,57.09q-.09,10.55-.06,21.1c0,12.58.37,27.24-.06,39.56l-48.48.08q.24-24.27.15-48.53c0-9.4.4-18.95-.62-28.29-.2-1.78-1-4.56-2.32-5.67C122.45,79,118,85.1,117.39,90a100,100,0,0,0-.6,11.14q-.18,10.88,0,21.77c.09,14.31-.13,28.61.06,42.93q-24.56-.21-49.1,0l-.06-48.08c0-9,.15-17.77-.41-26.81-.83-13.34-12.31-11.12-13.08,0-.51,7.49-.2,15.15-.3,22.68q-.57,26.07-.22,52.14l-35.81-.1c-4.91,0-13.26.38-17.83.08v-116c.16-.87.34-2.5.86-3.11,3.42-.92,9.54-.62,13.27-.73,10.68-.3,21.1.33,31.79.33C45.41,52.82,44.6,63.34,46,69.39Z"/>
  <path d="M414.66,132.31c-1.41,2.07-2.23,4.43-3.55,6.39-4.09,6.07-10.87,10.91-18.25,12-21.8,3.27-36.74-10.83-40.84-31.86-5.07-26-1.74-67.27,30.32-73.95C396.41,42,413,49,416.92,63.65c.18.62.56,1.53,1.24,1.51,1.6-2.49.58-14.78.84-18.58,3.66-.39,8.19-.32,11.92-.37q13.47-.12,26.95.14l-.06,70.45c-.11,23.79,3.74,51-15,69-8.9,8.58-19,11.06-30.91,12.65a18.32,18.32,0,0,0-2.83.62H394.41c-3.39-.86-8.32-1.26-12-1.91-9.48-1.66-19.68-6.89-24.72-15.34-4-6.62-4.22-14.1-4.57-21.59,6.38-1.23,14.75-1.93,21.35-2.59,5.41-.54,12.65-1.45,17.88-1.65.32,7,1.53,10.83,9.56,10.53,8.57-.32,11.48-8.1,12.31-15.47C414.93,144.92,415.83,138.44,414.66,132.31Zm-9.43-12.42c1.94,0,2.77-.1,4.26-1.56,3.89-3.79,4.68-12.72,4.68-18s-.53-14.83-4.47-18.73a5.92,5.92,0,0,0-4.72-2c-.52,0-1,0-1.54,0-2.88,1-4.79,2.09-6.06,5-3.67,8.43-3.43,19.18-1,27.91C397.61,117,400.71,119.75,405.23,119.89Z"/>
  <path d="M624,126.46c-.67,2.39-.88,5.26-1.54,7.73-3.82,14.23-13.48,25.91-27.68,30.62-1.69.57-3.42,1.41-5.17,1.89-17.35,4.15-37.55,2.67-52.49-7.8-14.76-10.47-21.23-28.16-22.07-45.48-.8-16.52,1.72-33.95,11.46-47.64a49.52,49.52,0,0,1,33.54-20.42c14.91-2.37,30.66.07,43.14,9,10.72,7.62,16.63,19.32,19.14,32,.78,3.92,1,7.57,1.67,11.44v11.69c-.24,1.24-.45,2.49-.64,3.75-18.6.34-37.15.22-55.76,0-2.33,0-5.05,0-7.36.23.52,5.93,1.24,15.83,6.12,19.95a8.8,8.8,0,0,0,6.55,2c7.87-.75,7.22-10.84,8.67-16.2,8.31.94,16.86,2.26,25.23,3.24,3.62.42,14,1.54,17.19,2.25ZM572.89,95a37.19,37.19,0,0,0,6.4-.35c1.79-2.31-1.25-15.12-4.36-16.83-2.8-1.55-3.3-1.6-6.45-1.24-4.12,1.89-5.43,5.71-6.69,10-.43,1.49-2.41,7.24,0,8.18C564.26,95.21,570.41,95,572.89,95Z"/>
  <path d="M205.41,0h8.3c4.41,1.18,6.28,1.27,10.68,3.61a20.49,20.49,0,0,1,9.91,12.2,22.92,22.92,0,0,1-1.59,17c-6.67,12.14-22.62,14-34.62,9.79-6.4-2.25-11.07-8-12.93-14.37A21.4,21.4,0,0,1,187,11.78C191.29,4,197.55,2.19,205.41,0Z"/>
</svg>
