<svg xmlns="http://www.w3.org/2000/svg" id="Слой_1" data-name="Слой 1" viewBox="0 0 35.32 35.59">
  <defs>
    <style>
      .cls-1 {
        fill: #8e3ef0;
      }

      .cls-2 {
        fill: #f9fafb;
      }
    </style>
  </defs>
  <g id="Слой_2" data-name="Слой 2">
    <g id="Слой_1-2" data-name="Слой 1-2">
      <path class="cls-1" d="M23.16,4.7c7.16-.28,4.36,10.7,10.67,11.92a5.47,5.47,0,0,1,1,.27c.72.27,1.59.52,2.43.82A5.92,5.92,0,0,1,41,21.48c1.23,4.12-3.8,5.89-7.84,7.43a6.08,6.08,0,0,0-3.53,3.51c-1.26,3.35-1.61,7.64-5.82,7.85-4.47.3-5.18-4.17-6.38-7.75a6.2,6.2,0,0,0-3.79-3.89C10.56,27.53,7,27,6,23.64c-1.13-4.95,3.92-5.95,7.73-7.4a6.12,6.12,0,0,0,3.58-3.62C18.57,9.25,19.1,5,23.16,4.7Z" transform="translate(-5.85 -4.69)"/>
    </g>
  </g>
  <g id="Слой_2-2" data-name="Слой 2">
    <g id="Слой_1-2-2" data-name="Слой 1-2">
      <path class="cls-2" d="M23,9.56a1.09,1.09,0,0,1,2-.21c1.52,2.83.86,9.59,4.81,10.36,2.8.62,6.66,1.56,7.56,2.51,1.17,2.25-4.64,2.86-7.38,3.69C25.38,27.06,26.86,33,24.8,36.29a1.09,1.09,0,0,1-1.82,0c-1.34-2.06-1.35-5.49-2.32-7.74C19.2,24.45,14.05,25,10.3,23.78a1.1,1.1,0,0,1,0-2.07C20.27,18.24,18.82,21.81,23,9.56Z" transform="translate(-5.85 -4.69)"/>
    </g>
  </g>
</svg>