<svg id="ab1181d0-5397-4ecc-97b1-0c5fd217a14f" data-name="Слой 1" xmlns="http://www.w3.org/2000/svg" xmlns:xlink="http://www.w3.org/1999/xlink" viewBox="0 0 227.1 227.1">
  <defs>
    <style>
      .bc10ad79-588f-48b3-a07b-2134f6259ff4 {
        fill: black;
      }

      .a8ff421d-57ee-49f9-a28e-1c223e273d73 {
        clip-path: url(#bb51d62c-41a9-4f07-a516-d2887487abab);
      }

      .be984625-26f2-4633-9f00-8c91fbd32afc {
        fill: #fff;
      }
    </style>
    <clipPath id="bb51d62c-41a9-4f07-a516-d2887487abab">
      <path class="bc10ad79-588f-48b3-a07b-2134f6259ff4" d="M113.55,0h0A113.55,113.55,0,0,1,227.1,113.55h0A113.55,113.55,0,0,1,113.55,227.1h0A113.55,113.55,0,0,1,0,113.55H0A113.55,113.55,0,0,1,113.55,0Z"/>
    </clipPath>
  </defs>
  <g class="a8ff421d-57ee-49f9-a28e-1c223e273d73">
    <g>
      <path class="be984625-26f2-4633-9f00-8c91fbd32afc" d="M113.55,0h0A113.55,113.55,0,0,1,227.1,113.55h0A113.55,113.55,0,0,1,113.55,227.1h0A113.55,113.55,0,0,1,0,113.55H0A113.55,113.55,0,0,1,113.55,0Z"/>
      <path d="M173.85,182l.08-.07c6-5.61,5.68-11.44,3.24-18.21a54.6,54.6,0,0,0-3.35-7.27A38.72,38.72,0,0,1,169.68,146c-1-4.72.46-9,1.87-13,1.75-5.06,3.39-9.79-.05-14.76-4.18-6-10.76-3.59-17.69-1-6.48,2.39-13.27,4.9-18.7.67l-.24-.19a9,9,0,0,1-2.38-10.91c3.09-6.15,10.29-6.8,17.18-7.42C157,98.64,164,98,165.2,90.77c1-6-2.54-9.53-6.29-13.34-3-3.05-6.14-6.25-7.28-11a38,38,0,0,1-.75-11.25,54.46,54.46,0,0,0-.12-8c-.71-7.16-2.89-12.57-10.74-15l-.12,0-.1,0c-7.89-2.33-12.73.9-17.35,6.43a57.78,57.78,0,0,0-4.58,6.57A37.84,37.84,0,0,1,110.93,54c-3.56,3.26-8,4.14-12.16,5-5.24,1-10.16,2-12.69,7.51-3.07,6.66,2.34,11.1,8.06,15.76,5.35,4.38,11,9,10.06,15.79a9.19,9.19,0,0,1-8.6,7.88c-6.87.3-10.95-5.69-14.86-11.4-4.17-6.09-8.11-11.88-15-9.4-5.68,2-7.09,6.86-8.59,12-1.2,4.11-2.46,8.42-6,11.69a37.89,37.89,0,0,1-9.45,6.15,55.23,55.23,0,0,0-6.95,4c-5.91,4.12-9.56,8.66-7.91,16.73,0,0,0,.08,0,.11l0,.1c1.8,8,7,10.68,14.07,12a54.43,54.43,0,0,0,8,.79A38.15,38.15,0,0,1,60,150.42c4.58,1.52,7.5,5,10.27,8.2C73.77,162.68,77,166.51,83,166c7.32-.56,8.55-7.46,9.86-14.73,1.22-6.8,2.49-13.93,8.88-16.46a15.58,15.58,0,0,1,1.71-.57,8.91,8.91,0,0,1,9.79,3.54c3.73,5.77.65,12.32-2.3,18.57-3.15,6.68-6.14,13-.5,17.71,4.64,3.86,9.51,2.63,14.7,1.33,4.14-1,8.51-2.15,13.12-.73a38.49,38.49,0,0,1,10.09,5,54.63,54.63,0,0,0,7,4c6.56,3,12.32,3.86,18.44-1.63Z"/>
    </g>
  </g>
</svg>
