<svg id="a5d5086f-7393-487a-bbdb-86de361b46fc" data-name="Слой 1" xmlns="http://www.w3.org/2000/svg" viewBox="0 0 49.37 51" fill="currentColor">
  <path d="M21.67,12.48C22,9.63,25.52,9.43,27,11.89a29.78,29.78,0,0,0,6,7.41c1.82,1.64,5.69,3.86,8,5.38,1.2.8,1.16,2.18-.18,2.7a17.45,17.45,0,0,1-4.84,1,4.71,4.71,0,0,0-2.76,1.05C27,34.66,20.66,40.57,14.66,45.94c-3.42,3.19-7.08,7.26-11.84,3.64C.39,48-1,44,.88,41.44c6-8.22,13.21-16.12,19.71-24a4,4,0,0,0,.89-2.34C21.53,14.08,21.58,13.24,21.67,12.48ZM35.71,0c10.18.08,17.78,12.83,11.2,21.82-.54.75-1.73.59-2.77.39a5.89,5.89,0,0,1-1.57-.51A33.31,33.31,0,0,1,28,7.93c-1.26-2.21-.81-5.18,1.42-6.41a16.44,16.44,0,0,1,3-1.23A5.56,5.56,0,0,1,33.87,0C34.49,0,35.1,0,35.71,0Z" transform="translate(0)"/>
</svg>
