<svg id="a7d1d6da-ed34-4fe7-a240-df203be4ab62" data-name="Слой 1" xmlns="http://www.w3.org/2000/svg" viewBox="0 0 44.27 48">
  <defs>
    <style>
      .a7c1a491-c897-4088-a696-3299d0a9b641 {
        fill: currentColor;
      }
    </style>
  </defs>
  <path class="a7c1a491-c897-4088-a696-3299d0a9b641" d="M37.83,0c3.5-.3,6.14,1.6,6.26,5.22.39,9.41,0,18.38.1,27.85S33.25,47,27.51,39.23c-3.22-4.38.62-11.22,5.8-11.7,5.54-.51,5.4-.09,5.33-6.08-.17-1.5.79-9-2.23-8.46s-15.73,2.89-17.66,4.54l-.15.14C16.11,22.16,20,38,16.34,43.92a8.9,8.9,0,0,1-5.63,3.82,9.64,9.64,0,0,1-7.34-1.18A7.15,7.15,0,0,1,.14,42a7.9,7.9,0,0,1,1.3-6c2.48-3.58,5.38-3.4,9.15-4.13.39-.07,1.17-.26,1.4-.62,1.37-2.19-1.18-20.16,1.38-23.83a6.77,6.77,0,0,1,2.88-2.25c3-1.25,7.2-1.79,10.42-2.53C30.39,1.79,34.09.7,37.83,0Z" transform="translate(0 0)"/>
</svg>
