<svg id="e79cabdd-6e74-4261-9d58-904827820af4" data-name="ec61f091-7286-42eb-a4ed-16f15f29f497" xmlns="http://www.w3.org/2000/svg" viewBox="0 0 297.92 297.3">
  <defs>
    <style>
      .bbd86446-a226-4ff7-bc1e-96e6a88a3852 {
        fill: currentColor;
        stroke: currentColor;
        stroke-miterlimit: 10;
        stroke-width: 15px;
      }
    </style>
  </defs>
  <path class="bbd86446-a226-4ff7-bc1e-96e6a88a3852" d="M61.94.44C99.24-.46,136.72.27,174,.3l35.78,0c8.59,0,17.83-.43,26.27,1.23a59,59,0,0,1,28.31,14.63c13.33,12.49,17.5,28.42,18,46.16,1,38.77.29,77.55.15,116.32l-.13,33.85c0,8.52.41,17.61-1.26,26-.27,1.29-.58,2.57-.94,3.84s-.76,2.52-1.2,3.76-.93,2.47-1.46,3.67-1.11,2.4-1.72,3.57a38.25,38.25,0,0,1-2,3.43c-.74,1.12-1.42,2.22-2.19,3.29s-1.57,2.11-2.42,3.12-1.71,2-2.62,3c-11.88,12.36-26.76,15.76-43.36,16H72c-9,0-18.49.51-27.41-1.11-1.23-.22-2.44-.49-3.64-.79s-2.4-.66-3.58-1.05-2.34-.82-3.48-1.3-2.28-1-3.39-1.55-2.2-1.15-3.26-1.79-2.11-1.3-3.13-2-2-1.46-3-2.24-1.9-1.59-2.81-2.44C5.66,256.07.71,241.84.17,224.78c-.4-12.32,0-24.72,0-37l.26-69.6.08-42C.56,66.38,0,56,1.8,46.33c.26-1.34.57-2.67.92-4s.75-2.63,1.2-3.92.93-2.57,1.47-3.82,1.11-2.5,1.74-3.72,1.29-2.41,2-3.57,1.46-2.32,2.25-3.43S13,21.66,13.86,20.6s1.77-2.08,2.71-3.07C28.8,4.6,44.78.84,61.94.44Zm-.67,29c-9.52.55-17.81,3.11-24.34,10.41a27.1,27.1,0,0,0-6.71,14c-1.44,10.08-.76,20.75-.69,30.91l.37,50.65q.11,26-.15,51.89c-.2,12.6-1.09,25.53-.28,38.1.52,8,3,16.17,9.18,21.66a31,31,0,0,0,16.16,7.34c6.66,1,13.65.51,20.36.44q15.14-.21,30.26-.21l117.34.18c8.38-.37,15.89-1.95,22-8.35,4.17-4.39,5.9-8.54,6.75-14.47,1.4-9.68.79-19.8.73-29.57l-.08-41.08.19-66.83c0-11.44.57-23.06,0-34.48-.45-9.12-2.75-17.31-9.85-23.56A27.89,27.89,0,0,0,229.29,30c-8.5-1.4-17.73-.75-26.35-.71l-41.49.19h-63c-12.41-.1-24.85-.52-37.18,0Z" transform="translate(7.51 7.51)"/>
  <path class="bbd86446-a226-4ff7-bc1e-96e6a88a3852" d="M90.06,75.37c7-.22,18.75-1.7,24.77,2.41a10.69,10.69,0,0,1,4.24,6.66c1,5.19.37,11.13.34,16.4V126.6l0,43.36c0,8.39.42,17-.09,25.32-.18,2.87-.26,6.22-2.11,8.57-2.2,2.77-5.32,3.32-8.61,3.76-7.23.15-20.48,1.93-26.74-2.3a9.38,9.38,0,0,1-3.8-6.41c-.92-6.18-.46-13-.39-19.2l.18-28L78,111.55c0-7.46-.32-15.13.21-22.56.22-3,.41-7,2.31-9.48C82.83,76.4,86.49,75.85,90.06,75.37Z" transform="translate(7.51 7.51)"/>
  <path class="bbd86446-a226-4ff7-bc1e-96e6a88a3852" d="M176.76,75.38c7.36-.24,18.48-1.82,25,2.21a11.25,11.25,0,0,1,4.94,7.33c.87,4.52.39,9.85.39,14.46L207,126.11v44.58c0,7.83.3,15.79-.15,23.61-.16,2.75-.3,5.87-1.92,8.2-2.52,3.64-6.54,4.46-10.62,5.12-7.83.12-20.7,1.92-27.2-2.84a10.32,10.32,0,0,1-4-6.8c-.75-4.9-.33-10.39-.32-15.36V155.17l-.1-40.79c0-8.71-.43-17.57.17-26.26.19-2.8.25-6,2.07-8.25C168,76.27,172.49,75.84,176.76,75.38Z" transform="translate(7.51 7.51)"/>
</svg>
