<svg id="Слой_1" data-name="Слой 1" xmlns="http://www.w3.org/2000/svg" viewBox="0 0 221.68 305.61">
  <defs>
    <style>
      .cls-1 {
        fill: currentColor;
      }
    </style>
  </defs>
  <path class="cls-1" d="M421.74,359.83a8.75,8.75,0,0,1,1.69-.19c35.34-.91,70.93,0,106.3-.08l40.86-.13c9.66-.08,19.46-.51,29.1.16a21.49,21.49,0,0,1,9.29,2.64c.37.2.73.42,1.09.64s.71.45,1.06.69l1,.75c.33.26.66.52,1,.8s.63.56.94.85.6.58.89.89.57.62.85.94.54.64.79,1,.51.67.75,1,.48.69.7,1,.43.72.64,1.09.4.74.58,1.12.36.76.53,1.15.32.78.47,1.18.28.79.4,1.19.25.81.35,1.22c2.15,8.56.86,25.26.86,34.74V478.7l0,104.8c0,17.59,1,35.74-.12,53.27-.37,6-1,11.3-4.33,16.46-3.86,6-9.23,9.14-16,10.63-.28.06-.57.11-.86.15-9.16,1.28-19.19.46-28.43.4l-46.88,0-65.25.08c-11.56,0-23.57.86-35.06-.05a29.14,29.14,0,0,1-12.84-3.76A22.69,22.69,0,0,1,401.62,646c-1.82-7.68-.59-19.86-.56-28.09V448.09c0-20.91-.86-42.26.3-63.12.28-5,.86-9.84,3.68-14.2C408.88,364.86,415,361.31,421.74,359.83Zm41.79,45.91-5.76.08a9.06,9.06,0,0,0-8.9,9.15c.77,64.53-.5,129.11,0,193.65a9,9,0,0,0,9.05,9l17.83,0h5.31a9,9,0,0,0,9-9V483.09c0-22.67-.35-45.43.06-68.11a9,9,0,0,0-9-9.18Q472.35,405.74,463.53,405.74Zm79.44.42a9,9,0,0,0-9.06,9.14c.14,12-.33,24.06-.32,36l-.09,104.51c0,17.59-.38,35.32,0,52.94a9,9,0,0,0,9,8.8h22.65a9,9,0,0,0,9-8.89q.12-23.91-.12-47.82l.15-101.37c0-14.73-.35-29.55-.14-44.31a9,9,0,0,0-9.14-9.17C557.62,406.1,550.28,406.22,543,406.16Z" transform="translate(-400.62 -359.22)"/>
</svg>
