<svg id="Слой_1" data-name="Слой 1" xmlns="http://www.w3.org/2000/svg" viewBox="0 0 321.89 341.65">
  <defs>
    <style>
      .cls-1 {
        fill: currentColor;
      }
    </style>
  </defs>
  <path class="cls-1" d="M655.35,342.63a18.77,18.77,0,0,1,11.3,2.18,16.61,16.61,0,0,1,7.25,10.44c2.35,9.36,1,31.73,1,42.3l0,85.23V544.6c0,11.38.77,23.28-.48,34.58a66.17,66.17,0,0,1-9.8,27.17c-.31.52-.63,1-1,1.54s-.65,1-1,1.51-.68,1-1,1.48-.7,1-1.07,1.46-.73,1-1.1,1.44-.75.94-1.14,1.4l-1.17,1.38L656,617.9l-1.25,1.32c-.42.43-.84.86-1.27,1.28l-1.31,1.25c-.44.41-.89.81-1.34,1.21s-.9.8-1.37,1.19-.92.77-1.39,1.14-1,.75-1.43,1.12-1,.72-1.45,1.07l-1.48,1-1.51,1q-.76.5-1.53,1t-1.56.93l-1.57.88-1.6.85-1.62.8-1.64.76c-.55.25-1.11.49-1.66.72s-1.12.46-1.68.68l-1.69.64-1.71.59-1.72.55-1.74.51-1.75.46c-.58.15-1.17.29-1.76.42a70.94,70.94,0,0,1-54.6-9.15c-16.1-10.28-28.17-26.33-32.13-45.15-.24-1.15-.46-2.3-.64-3.46s-.34-2.33-.47-3.49-.23-2.34-.3-3.52-.11-2.34-.12-3.52,0-2.35.06-3.52.13-2.35.24-3.52.24-2.34.41-3.5.36-2.32.58-3.47.48-2.31.76-3.45.59-2.27.93-3.4.71-2.24,1.1-3.34.82-2.21,1.27-3.29.92-2.16,1.43-3.22,1-2.11,1.59-3.15,1.13-2,1.74-3.06,1.24-2,1.9-3,1.33-2,2-2.93,1.42-1.89,2.17-2.82,1.52-1.82,2.31-2.7,1.61-1.75,2.44-2.59,1.7-1.67,2.57-2.47,1.77-1.58,2.69-2.34,1.85-1.49,2.8-2.2,1.92-1.39,2.9-2.06,2-1.3,3-1.91,2.05-1.2,3.1-1.76,2.1-1.1,3.17-1.61,2.16-1,3.26-1.45,2.2-.88,3.32-1.28,2.24-.77,3.38-1.12,2.28-.66,3.43-1,2.31-.55,3.47-.78c24.58-4.89,42,3.7,61.74,17,.1-41.64-1-83.27-.22-124.92C635,394.3,620,399.51,605.2,403.66l-61.46,16.67c-11.52,3.08-23.12,6.31-34.7,9.12-5.26,1.27-10.78,1.77-15.82,3.81l-.26,1.12q-.65,66.31-.19,132.63l.09,32.41c0,9,.44,18.31-1.07,27.19-1.72,10.06-6,18.84-11.83,27.13-.67,1-1.37,1.93-2.1,2.87s-1.47,1.86-2.24,2.76-1.56,1.79-2.37,2.65-1.65,1.7-2.5,2.52-1.73,1.62-2.63,2.4-1.81,1.53-2.74,2.26-1.89,1.44-2.86,2.12-1.95,1.34-2.95,2-2,1.24-3.05,1.83-2.08,1.14-3.14,1.67-2.14,1-3.22,1.5-2.18.93-3.29,1.35-2.23.82-3.36,1.18-2.26.7-3.4,1-2.3.59-3.46.84-2.32.47-3.49.67-2.26.32-3.4.44-2.27.22-3.41.28-2.28.1-3.43.11-2.28,0-3.42-.06-2.28-.12-3.42-.22-2.27-.23-3.4-.39-2.26-.35-3.38-.56-2.24-.46-3.35-.72-2.21-.57-3.31-.89-2.18-.67-3.26-1.05-2.15-.78-3.21-1.21-2.1-.88-3.14-1.36-2.06-1-3.07-1.51-2-1.09-3-1.67-1.95-1.18-2.91-1.81-1.89-1.27-2.81-1.94C367,660.39,356.73,644.52,354.15,627c-2.7-18.4,2-39.63,13.25-54.55.73-1,1.48-1.89,2.25-2.8s1.58-1.82,2.4-2.69,1.66-1.73,2.52-2.57,1.75-1.65,2.65-2.44,1.83-1.56,2.76-2.31,1.9-1.47,2.88-2.17,2-1.37,3-2,2-1.28,3.07-1.88,2.09-1.17,3.16-1.72,2.15-1.07,3.25-1.56,2.19-1,3.31-1.4,2.24-.86,3.38-1.24,2.28-.75,3.44-1.07,2.32-.63,3.48-.9,2.35-.52,3.53-.73,2.37-.4,3.56-.55c22.88-3,38.37,5.1,55.91,18.64-.6-11.33-.2-22.82-.16-34.17l.15-56.85V431.73c0-8.26-.45-16.75.34-25A23.26,23.26,0,0,1,475.8,396a19.47,19.47,0,0,1,8.71-7.24c7.85-3.19,16.51-4.89,24.73-6.92q16-3.92,31.79-8.33l71-19.73C626.33,349.87,640.73,345.4,655.35,342.63Z" transform="translate(-353.41 -342.52)"/>
</svg>
