<svg id="Слой_1" data-name="Слой 1" xmlns="http://www.w3.org/2000/svg" viewBox="0 0 303.59 348.58">
  <defs>
    <style>
      .cls-1 {
        fill: currentColor;
      }
    </style>
  </defs>
  <path class="cls-1" d="M393.79,338.23c.36-.06.72-.11,1.09-.14a35.34,35.34,0,0,1,10.41.44,50.88,50.88,0,0,1,13.65,5.24c13,7,25.51,15.7,38.22,23.33Q508.67,398,559.53,430C574,439,588.34,448.3,603,457c14.28,8.51,29.08,16.54,42.78,26,4.56,3.14,9,6.65,12,11.36,4.74,7.4,5.75,17,3.77,25.44a29.59,29.59,0,0,1-8.15,14.92c-9.59,9-25.67,17.11-37.16,24.18l-71.5,44.17q-40.31,24.69-80.38,49.79c-15.07,9.4-30,19.71-45.77,27.87-4.47,2.31-9,4.39-14,5.25-9.82,1.71-20.11-1.21-28.17-6.9-7.74-5.45-14.31-13.88-15.94-23.34-2.68-15.51-1.08-32.63-1.05-48.35l.07-86.16,0-98V392.64c0-6-.3-12.13.25-18.06a43,43,0,0,1,7.54-20.81C373.88,344.65,383,340.13,393.79,338.23ZM424,438.51l.47,147a11.2,11.2,0,0,0,17,9.51c12.75-7.84,25.39-15.89,38.08-23.8s25.78-15.42,38.12-23.79Q535.49,536.81,553.1,526l7.84-4.89a11.13,11.13,0,0,0,.26-18.72c-12.13-8-25.21-14.83-37.54-22.35Q482.28,454.76,441.17,429A11.19,11.19,0,0,0,424,438.51Z" transform="translate(-358.96 -337.9)"/>
</svg>
