<svg id="e105aa79-63bd-441c-a3b9-278c5dbb2116" data-name="e98fc09a-a1ef-4a6f-ba36-b46b432c8765" xmlns="http://www.w3.org/2000/svg" viewBox="0 0 411.54 411.15">
  <defs>
    <style>
      .aeb942c7-6907-43a9-887d-767c5d8eb8ee {
        fill: currentColor;
        stroke: currentColor;
        stroke-miterlimit: 10;
        stroke-width: 20px;
      }
    </style>
  </defs>
  <path class="aeb942c7-6907-43a9-887d-767c5d8eb8ee" d="M191.89.13h.63C204.05-.35,216,1,227.34,2.92c38,6.57,72.17,23,100.53,49.28,37.59,34.77,61.6,84.27,63.57,135.63,2.07,54.15-16.14,102.29-53.06,141.85-36.33,38.92-86.19,59.5-139,61.41-46.85,1.48-94.11-16-129.59-46.34C29.2,310,4.79,262.59.68,209.29c-.12-1.58-.23-3.16-.32-4.75s-.16-3.17-.21-4.75S.07,196.61.06,195s0-3.18,0-4.77.07-3.17.14-4.75.16-3.17.27-4.76S.7,177.59.85,176s.31-3.16.5-4.74.39-3.15.61-4.72.47-3.14.73-4.7.55-3.13.85-4.69.62-3.11,1-4.66.71-3.1,1.08-4.64.78-3.07,1.2-4.61.85-3.05,1.31-4.57.92-3,1.41-4.55,1-3,1.54-4.51,1.07-3,1.64-4.46,1.15-3,1.76-4.43,1.22-2.93,1.86-4.38,1.29-2.9,2-4.34,1.36-2.86,2.07-4.28,1.44-2.83,2.19-4.23,1.51-2.79,2.28-4.18,1.58-2.75,2.4-4.11,1.64-2.72,2.48-4.06,1.72-2.67,2.6-4,1.77-2.64,2.68-3.93,1.85-2.59,2.79-3.87,1.9-2.53,2.88-3.79,2-2.49,3-3.72,2-2.44,3.07-3.64C84.23,24.68,135.45,4.16,191.89.13Zm-4,36.6c-46.35,4.48-85.17,21.1-115.28,57.63-.82,1-1.64,2-2.44,3s-1.6,2.06-2.38,3.1-1.54,2.1-2.29,3.16-1.49,2.14-2.21,3.22-1.44,2.17-2.14,3.26-1.38,2.21-2,3.33-1.32,2.24-2,3.37-1.26,2.27-1.88,3.42-1.21,2.3-1.8,3.46-1.15,2.33-1.7,3.51-1.1,2.36-1.63,3.55-1,2.39-1.53,3.59-1,2.41-1.44,3.63-.92,2.43-1.36,3.66-.85,2.46-1.25,3.69-.8,2.48-1.17,3.73-.74,2.49-1.08,3.75-.67,2.51-1,3.78-.6,2.53-.88,3.8-.55,2.54-.8,3.82-.47,2.56-.69,3.84-.42,2.57-.6,3.86-.35,2.58-.5,3.87-.29,2.58-.41,3.88-.22,2.59-.31,3.89-.16,2.6-.21,3.9-.09,2.6-.12,3.9,0,2.6,0,3.9,0,2.61.08,3.91.1,2.6.17,3.9.17,2.59.28,3.89.23,2.59.37,3.88.28,2.6.44,3.89.34,2.59.53,3.88.4,2.58.63,3.86.47,2.57.73,3.85.53,2.55.82,3.82.59,2.54.91,3.81.66,2.52,1,3.78.72,2.51,1.1,3.76.78,2.48,1.2,3.72.84,2.47,1.28,3.7.9,2.45,1.38,3.66,1,2.43,1.47,3.63,1,2.4,1.55,3.59,1.08,2.37,1.65,3.55,1.14,2.35,1.73,3.51,1.2,2.32,1.82,3.47,1.25,2.28,1.9,3.42,1.31,2.25,2,3.37,1.37,2.22,2.07,3.32,1.42,2.18,2.15,3.27,1.48,2.15,2.23,3.21S67.76,289,68.54,290s1.58,2.07,2.39,3.1,1.63,2,2.47,3,1.68,2,2.54,3,1.73,2,2.61,2.91,1.77,1.91,2.68,2.85,1.82,1.87,2.75,2.78,1.87,1.82,2.82,2.72,1.92,1.77,2.89,2.64,2,1.72,3,2.57,2,1.67,3,2.49c30.5,24.83,68.38,38.18,107.76,36.22a209.33,209.33,0,0,0,31.87-5.05q3-.78,6.06-1.7c2-.6,4-1.25,6-1.93s4-1.41,5.91-2.17,3.9-1.56,5.82-2.4,3.84-1.71,5.73-2.62,3.76-1.86,5.62-2.85,3.68-2,5.5-3.06,3.6-2.15,5.38-3.27,3.52-2.29,5.24-3.48,3.43-2.43,5.11-3.69,3.33-2.55,5-3.88,3.23-2.68,4.8-4.07,3.12-2.81,4.64-4.25,3-2.93,4.48-4.44,2.89-3,4.29-4.6,2.77-3.16,4.11-4.77c.82-1,1.62-2,2.41-3s1.57-2,2.33-3.07,1.52-2.08,2.26-3.13,1.46-2.11,2.17-3.18,1.42-2.15,2.1-3.24,1.36-2.18,2-3.29,1.3-2.21,1.94-3.33,1.25-2.25,1.85-3.38,1.2-2.28,1.77-3.43,1.14-2.31,1.69-3.47,1.08-2.33,1.6-3.51,1-2.36,1.51-3.55,1-2.38,1.43-3.58.9-2.41,1.33-3.62.85-2.43,1.25-3.65.79-2.45,1.16-3.68.73-2.46,1.07-3.7.66-2.49,1-3.74.61-2.5.88-3.75.55-2.51.79-3.78.49-2.52.7-3.79.42-2.54.61-3.81.35-2.55.51-3.82.29-2.56.41-3.84.23-2.56.33-3.84.16-2.57.22-3.85.11-2.57.14-3.85,0-2.58,0-3.86v-3.86c0-1.29-.09-2.57-.16-3.85s-.14-2.57-.24-3.85-.21-2.56-.34-3.84C349.51,139.31,328.51,98.63,296,72.11,267.08,48.6,225.4,33.24,187.89,36.73Z" transform="translate(9.94 9.97)"/>
  <path class="aeb942c7-6907-43a9-887d-767c5d8eb8ee" d="M144.24,95.93a22.76,22.76,0,0,1,6.38.34,28.08,28.08,0,0,1,7.62,2.92c6.94,3.75,13.55,8.41,20.31,12.5q23.16,13.88,46.14,28.09c20.84,12.83,42.53,24.81,62.86,38.4,3,2,6.77,4.28,8.73,7.41,3.45,5.51,3.55,12.17,2,18.33-.9,3.67-4.11,6.94-6.95,9.28-6.65,5.49-14.92,9.57-22.31,14l-36.51,22.16c-8.12,4.5-15.95,9.81-23.88,14.65l-32.74,19.56c-6.39,3.89-12.11,9.08-19.25,11.6-6.51,2.29-13.12,2.5-19.39-.73-5.43-2.78-10.25-8.1-11.83-14.08-1.75-6.61-.51-18.5-.48-25.68l.09-49.3-.11-54.77c-.08-11.28-.69-22.76.07-34a22.24,22.24,0,0,1,3.25-10.84C132,100,137.76,97.36,144.24,95.93Zm20.65,52.93c.83,32.31-.77,64.63-.1,96.91l50.13-30.06c10.09-6,21-11.76,30.41-18.75-20-11.28-39.62-23.39-59.32-35.19C179,157.55,172.38,152.31,164.89,148.86Z" transform="translate(9.94 9.97)"/>
</svg>
