<svg id="bd2553f4-d4d3-4c0d-8785-388f2b25190a" data-name="Слой 1" xmlns="http://www.w3.org/2000/svg" viewBox="0 0 55.96 40.48">
  <defs>
    <style>
      .a9842b13-9ccb-4095-9805-dda1b9875aa8 {
        fill: currentColor;
        fill-rule: evenodd;
      }
    </style>
  </defs>
  <path class="a9842b13-9ccb-4095-9805-dda1b9875aa8" d="M52.73,34a3.23,3.23,0,1,1,0,6.45H3.23a3.23,3.23,0,1,1,0-6.45ZM52.39,23.7a3.57,3.57,0,0,1,0,7.14H3.57a3.57,3.57,0,0,1,0-7.14ZM2.17,1.61c1.44-3.48,5.25-.42,7.1.83q2.54,1.71,5,3.44c1.52,1,4.75,2.7,5.1,4.63a2.9,2.9,0,0,1-1.21,2.75c-3,2.27-6.2,4.32-9.32,6.44-.94.64-3.25,2.3-4.41,2.17C.82,21.44,2,17.2,2,14.69a9,9,0,0,1,.06-1c.06-2,0-4,0-6C1.94,5.82,1.56,3.28,2.17,1.61Zm50.7,13a3,3,0,0,1,0,6.07H24.31a3,3,0,1,1,0-6.07ZM52,3.65a3.95,3.95,0,1,1,0,7.89H25.22a3.95,3.95,0,1,1,0-7.89Z" transform="translate(0 0)"/>
</svg>
