<svg xmlns="http://www.w3.org/2000/svg" id="Слой_1" data-name="Слой 1" viewBox="0 0 409.6 272.24">
  <defs>
    <style>
      .cls-1 {
        fill: currentColor;
      }
    </style>
  </defs>
  <path class="cls-1" d="M313.45,574.72a4.41,4.41,0,0,1,2.42-.7,12.45,12.45,0,0,1,1.37.06c3.08.29,6.39,2.22,9.07,3.69,9.11,5,17.56,11.29,26.28,16.94,7.14,4.62,14.85,8.78,21.63,13.91l0,0a4.42,4.42,0,0,1,0,6.92c-6.52,5.32-15.47,9.34-22.44,13.25-6.94,4.27-29.29,20.06-36.41,18.91a8.84,8.84,0,0,1-5.11-3.65c-3.19-5.15-3.19-56.06-1.29-64.26C309.58,577.39,311.48,576,313.45,574.72Z" transform="translate(-307.46 -375.55)"/>
  <path class="cls-1" d="M312,377.21a6.42,6.42,0,0,1,4.64-1.65h0c6.23.42,40.1,21.31,54.66,32.19a6.7,6.7,0,0,1,0,10.74c-5.88,4.35-13.12,7.89-18.92,11.29a5.54,5.54,0,0,0-.51.33c-8.28,5.87-27.24,19.9-36.77,18.63a4.9,4.9,0,0,1-3.77-1.92c-1.58-2.16-2.28-5.32-2.65-7.91-.94-6.58-.5-13.92-.56-20.56-.11-10.8-1-25,.7-35.53A8.83,8.83,0,0,1,312,377.21Z" transform="translate(-307.46 -375.55)"/>
  <path class="cls-1" d="M425,583.77a6.68,6.68,0,0,1,4.83-2.24c21-.59,42.22.11,63.23.12H678.32c10-.06,21.28-1.37,31.1.24,2.25.37,4.18,1,5.48,3,2.73,4.25,1.71,37.4.4,43.24a8.5,8.5,0,0,1-1.31,3.24,6.44,6.44,0,0,1-4.51,2.54c-10.59,1.14-22.16.11-32.72,0H495.94c-20.47,0-41.24.87-61.68,0a25.55,25.55,0,0,1-6.58-1,6.67,6.67,0,0,1-4.56-5.16c-1.69-9.51-.88-32.27-.29-37.79C423.17,586.89,423.55,585.37,425,583.77Z" transform="translate(-307.46 -375.55)"/>
  <path class="cls-1" d="M427.05,389.64c22.91-.68,46-.24,68.93-.25l134.75.24,47.45-.05c10-.05,23.65-1.83,33.18.86a5.21,5.21,0,0,1,3.72,3.1,13.93,13.93,0,0,1,1.13,5.18c.3,4-.28,8-.28,12,0,7.1.8,14.34.26,21.42a23.43,23.43,0,0,1-.8,4.71c-.91,3.14-2.19,4.64-4.78,5.73l-193.27.1-57.1.1c-10,0-20.79.81-30.75-.34-1.93-.23-3-.33-4.21-2a13.21,13.21,0,0,1-2.07-5.57c-1.12-6.74-1.25-33.84.06-40A7.37,7.37,0,0,1,427.05,389.64Z" transform="translate(-307.46 -375.55)"/>
  <path class="cls-1" d="M316.4,486.83a11.81,11.81,0,0,1,1.47-.18c15.16-.8,30.63-.15,45.82-.06l86.67.46q96.74-.78,193.48-.47l37.8.12c8.43,0,17.1-.64,25.5,0l.26,0a10.13,10.13,0,0,1,9,8.64v.08c.91,6.36.84,26.74-.26,32.78a14.91,14.91,0,0,1-2.8,6.77c-1.4,1.66-3.31,2.17-5.36,2.43a6.48,6.48,0,0,1-.77.07c-20.39,1.19-41,.33-61.46.3l-106.72.07L387.67,538l-38.68.07c-8.89.09-17.88.46-26.76.2a19.84,19.84,0,0,1-9.56-2.32,8.32,8.32,0,0,1-4.24-5.54c-1.65-6.48-1.34-35,2-40.24C311.94,487.9,313.94,487.32,316.4,486.83Z" transform="translate(-307.46 -375.55)"/>
</svg>