<svg id="Слой_1" data-name="Слой 1" xmlns="http://www.w3.org/2000/svg" viewBox="0 0 320.76 318.56">
  <defs>
    <style>
      .cls-1 {
        fill: currentColor;
      }
    </style>
  </defs>
  <path class="cls-1" d="M472.17,353.69a71.25,71.25,0,0,1,11.78-.32,127.26,127.26,0,0,1,56.52,14.1c1,.5,2,1,2.95,1.54s1.94,1.06,2.91,1.61,1.92,1.11,2.87,1.69,1.89,1.16,2.82,1.75,1.87,1.21,2.79,1.83,1.83,1.25,2.73,1.89,1.8,1.3,2.69,2,1.77,1.34,2.64,2,1.73,1.39,2.59,2.09,1.7,1.43,2.53,2.16,1.67,1.47,2.48,2.22,1.63,1.51,2.43,2.28,1.59,1.54,2.37,2.33,1.55,1.59,2.31,2.4,1.51,1.63,2.25,2.45,1.46,1.67,2.18,2.51,1.43,1.7,2.13,2.56,1.38,1.73,2.06,2.61,1.34,1.77,2,2.67,1.3,1.8,1.93,2.71,1.26,1.83,1.86,2.76,1.21,1.86,1.8,2.8,1.16,1.89,1.72,2.85,1.11,1.92,1.65,2.89,1.06,1.95,1.58,2.93,1,2,1.5,3,1,2,1.43,3,.92,2,1.36,3,.87,2,1.28,3.07.82,2.06,1.21,3.1.76,2.08,1.13,3.13.71,2.1,1,3.16c7.85,24.49,7.05,53.75-.93,78-3.44,10.44-8.23,20.08-13.23,29.82,19.42,17.4,37.2,36.69,55.47,55.27,6.51,6.62,14.62,12.73,20.2,20.15a14.87,14.87,0,0,1,3.2,7.94c.38,5.85-3.65,11.14-7.39,15.24-6,6.55-16.82,18.81-26.41,19a12,12,0,0,1-6.38-1.75c-10.21-6-30.57-29.18-40.2-38.84l-38.29-38.32c-17.29,10.09-34.41,17.7-54.51,20.12-1.08.14-2.16.26-3.25.37s-2.17.21-3.25.29-2.17.15-3.26.2-2.18.1-3.27.13-2.18.05-3.27.05-2.18,0-3.27,0-2.17-.06-3.26-.11-2.18-.12-3.26-.2-2.18-.17-3.26-.28-2.17-.22-3.25-.35-2.16-.28-3.24-.44-2.15-.33-3.22-.52-2.15-.38-3.22-.6-2.13-.43-3.19-.67-2.13-.49-3.18-.76-2.11-.54-3.16-.83-2.1-.6-3.14-.91l-3.12-1c-1-.34-2.06-.7-3.09-1.07s-2-.75-3.06-1.14-2-.8-3-1.22-2-.84-3-1.29-2-.89-3-1.36-2-.95-2.94-1.44-1.94-1-2.9-1.51-1.91-1-2.86-1.58-1.88-1.09-2.82-1.65-1.86-1.14-2.77-1.72-1.84-1.19-2.74-1.79-1.8-1.23-2.69-1.86-1.77-1.27-2.64-1.92-1.74-1.32-2.6-2c-27.44-21.67-44.36-53.49-48.49-88.07q-.18-1.59-.33-3.18c-.1-1.07-.18-2.13-.26-3.19s-.13-2.13-.17-3.19-.08-2.13-.1-3.2,0-2.13,0-3.2,0-2.13.06-3.19.08-2.13.14-3.2.14-2.12.23-3.19.18-2.12.3-3.18.24-2.12.38-3.17.29-2.12.46-3.17.34-2.1.53-3.15.4-2.1.62-3.14.45-2.08.69-3.12.51-2.07.78-3.1.55-2.06.84-3.09.61-2,.93-3.06.66-2,1-3,.71-2,1.08-3,.75-2,1.15-3,.8-2,1.22-2.95.86-1.95,1.3-2.92.9-1.93,1.37-2.89.95-1.91,1.44-2.85,1-1.89,1.51-2.82,1.05-1.86,1.59-2.78,1.09-1.83,1.65-2.74,1.13-1.8,1.72-2.69,1.17-1.78,1.78-2.66,1.22-1.74,1.85-2.61,1.27-1.71,1.91-2.56,1.31-1.68,2-2.51C402.77,373.53,436.51,357.71,472.17,353.69Zm4.18,44c-25.7,3.53-47.66,14.26-63.66,35.22-13.79,18-18.81,41.72-15.71,64,.1.68.2,1.36.31,2s.24,1.35.37,2,.27,1.34.42,2,.3,1.34.46,2,.33,1.33.51,2,.37,1.32.57,2,.4,1.32.61,2,.43,1.31.66,2,.46,1.3.71,1.94.49,1.29.75,1.92.53,1.27.8,1.9.56,1.26.85,1.88.59,1.25.89,1.86.62,1.23.94,1.84.65,1.21,1,1.81.68,1.2,1,1.79.7,1.18,1.07,1.76.74,1.17,1.11,1.74l1.16,1.71q.58.84,1.2,1.68c.41.55.82,1.1,1.24,1.64s.85,1.09,1.28,1.62.87,1.06,1.32,1.59.9,1,1.36,1.55.92,1,1.39,1.52.95,1,1.44,1.48,1,1,1.47,1.45,1,1,1.5,1.42,1,.92,1.54,1.37,1,.9,1.57,1.34l1.6,1.3,1.64,1.25c17.11,12.89,36.59,18.65,57.91,17.48,24-2.12,44.32-11.47,60-30.11a84.91,84.91,0,0,0,19.78-63.6c-2.18-22.91-13-44.35-30.93-58.92-15.84-12.86-39-21.87-59.66-19.55Z" transform="translate(-351.66 -353.28)"/>
  <path class="cls-1" d="M478.29,431.17c.73-.07,1.47-.13,2.21-.18s1.48-.07,2.22-.08,1.48,0,2.22,0,1.48.07,2.22.12,1.47.13,2.21.22,1.46.2,2.19.33,1.46.26,2.18.42,1.45.32,2.16.51,1.43.4,2.14.62,1.4.46,2.1.71,1.38.52,2.07.81,1.36.58,2,.9,1.33.64,2,1,1.3.7,1.94,1.08,1.27.76,1.89,1.16,1.23.83,1.84,1.26a56.44,56.44,0,0,1,22.51,36.38,51.47,51.47,0,0,1-9.28,38.94c-9.77,13.1-22.63,19.27-38.51,21.55q-1.2.11-2.4.15c-.8,0-1.61,0-2.41,0s-1.61,0-2.41-.08-1.6-.1-2.4-.18-1.6-.18-2.39-.29-1.59-.25-2.38-.41-1.57-.32-2.35-.5-1.56-.4-2.33-.62-1.54-.46-2.3-.72-1.52-.53-2.26-.83-1.49-.6-2.23-.92-1.46-.67-2.18-1-1.43-.73-2.13-1.13-1.39-.79-2.08-1.22-1.35-.86-2-1.31-1.32-.92-2-1.41c-11-8.46-18.88-21.19-20.67-35.06-.12-.89-.22-1.79-.3-2.68s-.13-1.8-.16-2.7-.05-1.8,0-2.7,0-1.8.11-2.7.14-1.79.24-2.68.23-1.79.37-2.68.32-1.77.51-2.65.41-1.75.64-2.62.49-1.73.77-2.59.58-1.7.9-2.55.67-1.67,1-2.49.75-1.64,1.15-2.44.83-1.6,1.28-2.38.9-1.56,1.39-2.32,1-1.51,1.5-2.24,1.06-1.46,1.62-2.16C450.51,438.43,462.9,433,478.29,431.17Z" transform="translate(-351.66 -353.28)"/>
</svg>
