<svg id="aadcd647-c2a9-43b0-8288-783367238b68" data-name="Слой 1" xmlns="http://www.w3.org/2000/svg" viewBox="0 0 48.03 48">
  <defs>
    <style>
      .a4bb68df-6e73-4ecb-bdd3-e6ec0ea19e8b {
        fill: currentColor;
        fill-rule: evenodd;
      }
    </style>
  </defs>
  <path class="a4bb68df-6e73-4ecb-bdd3-e6ec0ea19e8b" d="M16.65.14a25.84,25.84,0,0,1,5.49,0,19.91,19.91,0,0,1,13,7.6,18.92,18.92,0,0,1,3.4,15.36c-.29,1.34-1.38,4.35-1.41,5.49-.18,7,12.28,6.48,10.74,14.66a6,6,0,0,1-6.84,4.66c-2.46-.37-4-2.42-5.37-4.27-1.93-3-4-7.71-8.16-6.13-6,2.3-12.7,2.19-18.3-1.25a19.3,19.3,0,0,1-8.66-12A19.85,19.85,0,0,1,3,9C6.34,3.84,10.83,1.43,16.65.14ZM31,17.67A11.59,11.59,0,1,0,21.39,31,11.6,11.6,0,0,0,31,17.67Z" transform="translate(0 0)"/>
</svg>
