<svg id="Слой_1" data-name="Слой 1" xmlns="http://www.w3.org/2000/svg" viewBox="0 0 321.7 322.72">
  <defs>
    <style>
      .cls-1 {
        fill: #211f22;
      }
    </style>
  </defs>
  <path class="cls-1" d="M511.4,349.73c41.15-.71,82.87,17.19,112.35,45.51s48,68.84,48.8,110c.8,43.38-13.23,84.62-43.71,116.24-31.21,32.39-70.4,50.21-115.63,51-42.46-.18-80.49-16-111.48-44.91-1-.89-1.93-1.8-2.87-2.72S397,623,396.06,622s-1.83-1.89-2.73-2.86-1.79-1.94-2.66-2.93-1.73-2-2.58-3-1.69-2-2.51-3.06-1.63-2.07-2.43-3.12-1.58-2.1-2.35-3.17-1.53-2.15-2.27-3.24-1.48-2.18-2.19-3.29-1.42-2.22-2.11-3.35-1.36-2.25-2-3.39-1.31-2.29-1.94-3.45-1.25-2.32-1.85-3.49-1.19-2.35-1.76-3.54-1.13-2.38-1.68-3.58-1.07-2.41-1.58-3.63-1-2.43-1.49-3.66-1-2.46-1.4-3.69-.89-2.49-1.31-3.73-.83-2.51-1.22-3.77-.76-2.52-1.12-3.79-.7-2.54-1-3.82-.64-2.55-.93-3.84-.57-2.57-.84-3.86-.5-2.59-.73-3.89-.44-2.6-.64-3.9-.38-2.61-.54-3.92-.31-2.61-.45-3.93-.24-2.62-.34-3.93-.18-2.63-.25-4-.11-2.63-.14-4c-1.42-42.57,13-83.54,42.32-114.75C424.2,367.6,466.76,351.21,511.4,349.73Zm-4,93.48c-18.46,1.65-35.67,9.31-47.65,23.75-.74.9-1.46,1.82-2.15,2.75s-1.37,1.89-2,2.85-1.27,1.95-1.87,2.95-1.17,2-1.72,3-1.08,2.06-1.58,3.11-1,2.12-1.42,3.19-.87,2.16-1.26,3.25-.76,2.2-1.11,3.31-.65,2.24-.94,3.37-.54,2.26-.77,3.4-.44,2.28-.61,3.43-.32,2.31-.44,3.46-.21,2.32-.27,3.48-.1,2.33-.1,3.49,0,2.33.07,3.49.13,2.32.24,3.48.24,2.28.41,3.42.36,2.27.59,3.39.47,2.25.75,3.36.59,2.22.92,3.32.7,2.19,1.09,3.27.8,2.15,1.24,3.21.92,2.11,1.41,3.14,1,2.06,1.56,3.07,1.12,2,1.71,3,1.22,2,1.86,2.9,1.31,1.88,2,2.8,1.4,1.82,2.14,2.7,1.49,1.75,2.27,2.59,1.57,1.67,2.39,2.48,1.66,1.58,2.52,2.34,1.73,1.51,2.63,2.23a69.42,69.42,0,0,0,44.81,14.71c20-2.46,37.41-11.2,49.89-27.24.69-.9,1.36-1.81,2-2.75s1.28-1.88,1.88-2.84,1.18-2,1.74-2.94,1.08-2,1.58-3,1-2,1.43-3.09.88-2.1,1.27-3.17.78-2.14,1.12-3.22.66-2.18,1-3.28.55-2.21.79-3.32.44-2.23.62-3.36.32-2.25.44-3.38.22-2.26.28-3.4.11-2.27.11-3.41,0-2.27-.06-3.41-.12-2.27-.23-3.41-.24-2.26-.4-3.38-.3-2.19-.5-3.27-.41-2.17-.65-3.25-.52-2.14-.82-3.2-.62-2.12-1-3.16-.73-2.08-1.14-3.11-.83-2-1.28-3.05-.93-2-1.44-3-1-1.95-1.58-2.9-1.13-1.9-1.72-2.82-1.22-1.84-1.87-2.73-1.31-1.78-2-2.64-1.4-1.71-2.13-2.53-1.48-1.64-2.25-2.43-1.56-1.56-2.37-2.31-1.64-1.48-2.48-2.18-1.71-1.4-2.59-2.06C539.33,448.36,523.23,441.5,507.43,443.21ZM628.71,515.5c-5.32,5.75-4.94,16.31-6.68,23.77-6.29,27-22.57,50.13-44.82,66.52-13.14,9.69-27.85,16.67-44,19.28-5.12.82-11.33.73-16.15,2.61-2.47,1-4.53,2.68-4.42,5.59A6.36,6.36,0,0,0,515,638a6.45,6.45,0,0,0,4.61,1.16c33.67-1.77,64.45-18.79,86.84-43.52,14.62-16.14,23.3-36.44,28.31-57.42,1.1-4.64,2.52-9.85,2.33-14.66-.09-2.31-.8-5.05-2.71-6.55C632.8,515.8,630.65,515.64,628.71,515.5ZM500.05,385.7c-34.17,4-65.15,20.09-86.58,47.29-11.38,14.44-28.32,48.1-25.88,67.07.23,1.84.78,4,2.53,5a7,7,0,0,0,5.77-.05c.38-.16.75-.36,1.13-.54l.29-.37c5-6.45,4.1-20,6.62-28.16,10.29-33.35,37.5-60.14,70-71.92,5.35-1.94,11-4,16.68-4.84,5.05-.71,15.27-1,18.8-5.07a3.52,3.52,0,0,0,1-2.69,8.53,8.53,0,0,0-4.9-5,12,12,0,0,0-1.31-.46,10.72,10.72,0,0,0-4.14-.3Z" transform="translate(-350.88 -349.71)"/>
  <path class="cls-1" d="M510.4,491.64a21.43,21.43,0,0,1,13.06,3l.83.56.8.6c.27.21.53.42.78.64l.74.68c.24.24.47.47.7.72s.46.49.67.75.43.52.63.78.4.54.59.81.38.56.55.85.35.57.51.86.31.59.46.9.29.6.42.91.25.62.37.93.22.63.32.95.19.65.28,1,.16.65.22,1a22.2,22.2,0,0,1-3.13,16.69c-3.25,4.79-7.81,7.12-13.32,8.25-4.43.09-8.49-.28-12.49-2.38-.31-.17-.62-.34-.93-.53s-.61-.37-.91-.57l-.87-.61-.84-.66c-.28-.23-.55-.47-.81-.71s-.52-.48-.77-.74-.5-.51-.74-.78l-.69-.81c-.22-.28-.44-.57-.65-.86s-.41-.58-.6-.88-.39-.6-.57-.91-.35-.62-.51-.94-.32-.64-.47-1-.28-.66-.41-1-.26-.67-.37-1-.22-.68-.32-1a20.86,20.86,0,0,1,2.16-16.35C498.63,495.07,504.15,493,510.4,491.64Z" transform="translate(-350.88 -349.71)"/>
</svg>
