<svg xmlns="http://www.w3.org/2000/svg" id="Слой_1" data-name="Слой 1" viewBox="0 0 326.34 322.92">
  <defs>
    <style>
      .cls-1 {
        fill: currentColor;
      }
    </style>
  </defs>
  <path class="cls-1" d="M417.32,350.23c12.76-.45,25.62.53,38.4.54l92.93-.19q20.24.09,40.48-.05c12.35-.17,25.12-1.39,37.34.86q2,.38,4,.9c1.34.34,2.67.74,4,1.18s2.61.92,3.89,1.46,2.53,1.11,3.77,1.73,2.44,1.29,3.63,2,2.36,1.46,3.49,2.25,2.24,1.62,3.32,2.49,2.12,1.78,3.13,2.72c12.77,12,18.2,27.39,18.69,44.65.31,10.71,0,21.45.12,32.16v107.7c0,11.43-.12,22.87,0,34.3.18,12.33,1.26,25.3-1.09,37.48q-.46,2.3-1.08,4.53c-.41,1.5-.88,3-1.4,4.45s-1.09,2.9-1.71,4.33-1.29,2.82-2,4.2-1.49,2.72-2.31,4-1.68,2.62-2.59,3.88-1.86,2.48-2.85,3.67-2,2.35-3.12,3.47c-12.24,12.85-28.48,17.64-45.81,18l-145.91-.11-38.36-.09c-9.1,0-18.75.43-27.72-1.19-1.34-.23-2.68-.52-4-.85s-2.64-.71-3.94-1.13-2.58-.9-3.84-1.42-2.51-1.07-3.74-1.68-2.43-1.25-3.61-1.94-2.33-1.42-3.46-2.19-2.22-1.59-3.3-2.44-2.1-1.73-3.11-2.66c-13.48-12.13-19.75-27.37-20.55-45.34-.65-14.85-.09-29.95-.09-44.83V479.34l-.1-47c0-10.2-.88-21.17.92-31.21a66.31,66.31,0,0,1,15.94-31.87C380.37,353.34,396.92,351,417.32,350.23ZM602.5,640c11.2-.15,22.35.6,30.78-8.35a28.31,28.31,0,0,0,7-15.68c1.4-10.28.75-21.21.73-31.58l-.09-50.88-.08-74.44c0-13.79.74-27.9,0-41.66-.54-10-1.58-20.33-9.63-27.35-4.86-4.23-11.06-6-17.33-6.76-6.69-.82-13.47,0-20.19-.1q-24.36-.29-48.72-.16H467c-15,0-30.17-.38-45.19.15-11.68.76-23.9-1-32.42,9-3.41,4-6.48,10-7.2,15.2-1.51,10.91-.46,22.65-.38,33.66l0,54.95L381.64,568c-.1,15.2-1,30.91.48,46.06a29.33,29.33,0,0,0,10.2,20.14,25.08,25.08,0,0,0,12.38,5.58c9,1.1,18.3.67,27.34.64l39.7-.18Z" transform="translate(-348.65 -350.05)"/>
  <path class="cls-1" d="M416,415.68c20.34.48,40.63-.18,61-.06q63.54.5,127.08.07c.37,17.95.16,36,0,54-21.71-.68-43.74.13-65.47.23,1.54,27,2,54.1,3.45,81.11.19,18.45,1.67,37,2,55.43-21.93-1-44,0-65.94.13-.22-22.18,2.76-44.78,4.47-66.9,1.79-23.15,2.64-46.5,5-69.59-23.89-1-48.13-.58-72-.15C416.39,451.89,416,433.73,416,415.68Z" transform="translate(-348.65 -350.05)"/>
</svg>